<?xml version="1.0" standalone="no"?>
<!DOCTYPE svg PUBLIC "-//W3C//DTD SVG 1.1//EN" "http://www.w3.org/Graphics/SVG/1.1/DTD/svg11.dtd" >
<svg>
<metadata>
Created by FontForge 20120731 at Wed Oct 29 09:35:21 2014
 By Orthosie Webhosting
Copyright (c)  M. Klein,, 2004. All rights reserved.
</metadata>
<defs>
<font id="MankSansItalic" horiz-adv-x="500" >
  <font-face 
    font-family="MankSansItalic"
    font-weight="400"
    font-style="italic"
    font-stretch="normal"
    units-per-em="1000"
    panose-1="2 0 6 3 2 0 0 9 0 3"
    ascent="800"
    descent="-200"
    x-height="474"
    cap-height="706"
    bbox="-86 -265 1045 967"
    underline-thickness="20"
    underline-position="-123"
    slope="-11"
    unicode-range="U+0005-E007"
  />
<missing-glyph horiz-adv-x="313" 
d="M265 348l-7 8h-196l-10 -8l-4 -23l7 -8h196l10 8z" />
    <glyph glyph-name=".notdef" horiz-adv-x="313" 
d="M265 348l-7 8h-196l-10 -8l-4 -23l7 -8h196l10 8z" />
    <glyph glyph-name=".null" horiz-adv-x="0" 
 />
    <glyph glyph-name="nonmarkingreturn" horiz-adv-x="333" 
 />
    <glyph glyph-name="breve" horiz-adv-x="443" 
d="M411 730q2 8 -6 8h-30l-10 -8q-6 -29 -19.5 -54.5t-33.5 -44t-45.5 -29.5t-56.5 -11t-52.5 10.5t-33.5 29.5t-14.5 44t3.5 55l-6 8q-3 0 -9.5 0.5t-12.5 0.5t-11 -2t-6 -7q-17 -81 17 -129.5t116 -48.5q39 0 74 13t62.5 37t46.5 56.5t27 71.5z" />
    <glyph glyph-name="dotaccent" horiz-adv-x="247" 
d="M197 650q6 29 -11 51t-46 22q-15 0 -29.5 -6t-27 -16t-21.5 -23t-12 -28q-6 -29 11.5 -51t46.5 -22q15 0 29.5 6t26.5 16t21 23t12 28z" />
    <glyph glyph-name="ring" horiz-adv-x="319" 
d="M269 614q10 47 -15 77.5t-72 30.5q-23 0 -44.5 -8t-39.5 -22.5t-30.5 -34.5t-17.5 -43q-10 -48 14.5 -79t72.5 -31q23 0 45 8.5t39.5 23t30 34.5t17.5 44zM227 614h-1q-7 -31 -28.5 -51t-53.5 -20q-30 0 -44 21t-8 50q7 29 30 49.5t53 20.5t44.5 -20.5t7.5 -49.5z" />
    <glyph glyph-name="hungarumlaut" unicode="&#xa;" horiz-adv-x="393" 
d="M365 764q1 6 -7 6h-35l-7 -3q-4 -5 -19.5 -21.5t-36 -39t-43.5 -48t-42.5 -47t-33 -36.5t-13.5 -16q0 -8 8 -8h17l6 3q5 5 22 21.5t39.5 39.5t48 48t46.5 47t35.5 37t14.5 17zM265 764q1 6 -7 6h-35l-7 -3q-4 -5 -19.5 -21.5t-36 -39t-43.5 -48t-42.5 -47t-32.5 -36.5
t-14 -16q0 -8 8 -8h18l6 3q5 5 22 21.5t39.5 39.5t47.5 48t46 47t35 37t15 17z" />
    <glyph glyph-name="ogonek" horiz-adv-x="252" 
d="M192 -121q2 5 -5 8.5l-11 5.5l-10 -2q-19 -22 -45 -22q-19 0 -24.5 13.5t-1.5 30.5q2 9 10 21.5t18.5 25.5t21 24t18.5 19v-1l4 5l-12 6q-1 8 -12 8l-9 -4l-25 -25t-27 -29t-23 -31t-13 -29q-8 -32 8 -54t49 -22q9 0 23.5 4t28 11t24.5 16.5t13 20.5z" />
    <glyph glyph-name="caron" horiz-adv-x="446" 
d="M414 734q1 3 -1.5 5t-5.5 2h-19l-7 -3q-43 -38 -86 -76.5t-86 -76.5l-109 153l-5 3q-5 0 -15 0.5t-12 -7.5q0 -2 6.5 -14.5t17 -30.5t22.5 -39.5t23.5 -40.5t19.5 -33t11 -18l5 -3h59l7 3l18 18t33.5 33t41 40.5t40 39.5t30.5 30.5t12 14.5z" />
    <glyph glyph-name="dotlessi" unicode="&#xd;" horiz-adv-x="143" 
d="M142 466l-7 8h-27l-9 -8l-98 -458l7 -8h27l9 8z" />
    <glyph glyph-name="fraction" horiz-adv-x="633" 
d="M656 692q2 8 -8 8h-33l-7 -3q-9 -10 -40.5 -44t-77.5 -84t-101.5 -110.5t-112.5 -122.5t-110.5 -120.5t-95.5 -104.5t-67.5 -74t-25.5 -29q-2 -8 8 -8h34l7 3q9 10 40.5 44t77.5 84t101.5 110.5t112.5 122.5t110.5 120.5t95 104.5t67 74t25.5 29z" />
    <glyph glyph-name="fi" horiz-adv-x="484" 
d="M492 695l-3 7q-26 14 -62 24t-68 10q-65 0 -102 -25.5t-58 -66t-31 -89.5t-20 -97h-71l-10 -8l-4 -22l6 -8h71l-88 -412l7 -8h25l9 8l88 412h167l10 8l4 22l-6 8h-167l23 107q6 28 16.5 53t27.5 43t40.5 28.5t55.5 10.5q31 0 64 -10.5t56 -27.5l14 7zM455 466l-6 8h-25
l-10 -8l-98 -458l7 -8h25l9 8z" />
    <glyph glyph-name="fl" horiz-adv-x="499" 
d="M518 691l-5 7q-31 16 -73 27t-80 11q-65 0 -102.5 -25.5t-58 -65.5t-30.5 -89.5t-20 -97.5h-72l-10 -8l-4 -22l7 -8h71l-88 -412l7 -8h25l9 8l88 412h167l10 8l4 22l-7 8h-167l23 107q6 28 17 53t28 43t41 28.5t56 10.5t61 -8.5t58 -19.5l-142 -664l7 -8h25l9 8z" />
    <glyph glyph-name="Lslash" horiz-adv-x="220" 
d="M170 488q5 25 -8.5 42.5t-38.5 17.5t-46.5 -17.5t-26.5 -42.5t8.5 -42.5t38.5 -17.5t46.5 17.5t26.5 42.5zM153 466q-2 -8 -8.5 -13.5t-14.5 -5.5t-12.5 5.5t-2.5 13.5t8.5 13.5t14.5 5.5t12.5 -5.5t2.5 -13.5z" />
    <glyph glyph-name="lslash" horiz-adv-x="505" 
d="M512 488q5 25 -8.5 42.5t-38.5 17.5t-46.5 -17.5t-26.5 -42.5t8.5 -42.5t38.5 -17.5t46.5 17.5t26.5 42.5zM242 488q5 25 -8.5 42.5t-38.5 17.5t-46.5 -17.5t-26.5 -42.5t8.5 -42.5t38.5 -17.5t46.5 17.5t26.5 42.5zM406 697l-7 8h-151l-10 -8l-5 -23l8 -8l117 -1
q-31 -143 -61 -284.5t-60 -284.5q-6 -30 -17.5 -59.5t-30 -53.5t-45 -38.5t-62.5 -14.5q-15 0 -25 3.5t-18.5 8.5t-16.5 10.5t-19 9.5q-8 0 -10 -9l-1 -35l3 -6q16 -10 37.5 -15t42.5 -5q47 0 81.5 17.5t59 46.5t40 66.5t24.5 78.5zM331 -127l-5 6h-23l-8 -6
q-10 -45 -41.5 -76.5t-79.5 -31.5q-49 0 -67 31t-8 77l-4 6h-22l-9 -6q-12 -63 13 -100.5t91 -37.5q63 0 105.5 38.5t57.5 99.5zM495 466q-2 -8 -8.5 -13.5t-14.5 -5.5t-12.5 5.5t-2.5 13.5t8.5 13.5t14.5 5.5t12.5 -5.5t2.5 -13.5zM225 466q-2 -8 -8.5 -13.5t-14.5 -5.5
t-12.5 5.5t-2.5 13.5t8.5 13.5t14.5 5.5t12.5 -5.5t2.5 -13.5z" />
    <glyph glyph-name="Zcaron" 
 />
    <glyph glyph-name="zcaron" 
 />
    <glyph glyph-name="space" unicode=" " horiz-adv-x="277" 
 />
    <glyph glyph-name="exclam" unicode="!" horiz-adv-x="148" 
d="M169 698l-6 8h-29l-9 -8l-127 -598l5 -8h29l10 8zM32 44l-4 7h-36l-8 -7l-7 -36l4 -7h36l8 7z" />
    <glyph glyph-name="quotedbl" unicode="&#x22;" horiz-adv-x="227" 
d="M195 701q2 8 -8 8h-26l-8 -8l-36 -165l7 -8h18l9 8zM109 701q3 8 -6 8h-26l-9 -8l-36 -165l8 -8h18l9 8z" />
    <glyph glyph-name="numbersign" unicode="#" horiz-adv-x="555" 
d="M528 502l-6 7h-98l50 160q2 9 -6 9h-26l-10 -7l-48 -162h-141l48 160q2 9 -6 9h-26l-10 -7l-48 -162h-106l-10 -7l-5 -27l6 -8h101q-11 -37 -21.5 -73.5t-21.5 -73.5h-101l-10 -8l-6 -27l7 -7h96l-49 -165q0 -2 1.5 -5t4.5 -3h25l9 6l52 167h140l-50 -165q0 -2 1.5 -5
t4.5 -3h26l9 6q13 42 25 83.5t25 83.5h107l9 7l6 27l-6 8h-102q11 37 21.5 73.5t21.5 73.5h102l10 8zM370 467q-11 -37 -21.5 -73.5t-21.5 -73.5h-141q11 37 21.5 73.5t21.5 73.5h141z" />
    <glyph glyph-name="dollar" unicode="$" horiz-adv-x="478" 
d="M464 644l-4 8q-29 11 -62 16t-65 6l22 67q2 9 -6 9h-24l-10 -8q-4 -17 -6.5 -34t-6.5 -34q-77 0 -132.5 -36.5t-73.5 -119.5q-12 -56 5 -89.5t49 -54.5t71 -35t71.5 -31.5t51 -44.5t8.5 -74q-7 -35 -25.5 -58t-44 -36.5t-55.5 -19.5t-59 -6q-33 0 -65 5.5t-60 17.5
q-8 3 -16 9t-16 8q-1 1 -5 1q-3 0 -5.5 -3t-2.5 -5l-8 -37l3 -8q32 -13 70 -19.5t75 -7.5l-22 -77q-2 -8 6 -8q3 0 8.5 -0.5t11 0t9.5 2t5 6.5q5 20 6.5 38.5t5.5 38.5q39 0 75.5 8t67 27t52.5 49.5t31 74.5q12 56 -5 89.5t-48.5 54.5t-71 35.5t-72 32t-51 44.5t-8.5 73
q7 34 22.5 56.5t36.5 36t48 19t58 5.5q30 0 59 -4t55 -13q7 -2 14 -5.5t14 -5.5l5 -1q3 0 5 3t3 5z" />
    <glyph glyph-name="percent" unicode="%" horiz-adv-x="589" 
d="M351 577q13 63 -10 98.5t-88 35.5t-103.5 -35.5t-51.5 -98.5q-13 -60 11.5 -98.5t86.5 -38.5t102 39t53 98zM604 702q2 7 -6 7h-30l-7 -4q-8 -10 -37 -44.5t-71 -85t-93 -112t-103.5 -124t-101.5 -122t-87 -105.5t-61.5 -74.5t-23.5 -29.5q-2 -8 6 -8h31l7 4
q8 10 37 44.5t71 85t93 112t103 124.5t101 122t87.5 105.5t61.5 75t23 29.5zM492 131q14 63 -9 99t-88 36q-66 0 -104 -36t-52 -99q-13 -60 11.5 -98.5t86.5 -38.5t102 39t53 98zM311 577q-9 -41 -36 -70.5t-72 -29.5q-44 0 -59 29.5t-6 70.5q9 42 35.5 69.5t71.5 27.5
t59.5 -27.5t6.5 -69.5zM452 131q-8 -40 -35.5 -70t-71.5 -30t-59.5 29.5t-6.5 70.5q9 42 36 70t72 28t59.5 -28t5.5 -70z" />
    <glyph glyph-name="ampersand" unicode="&#x26;" horiz-adv-x="627" 
d="M536 308q2 8 -3.5 11t-11.5 3q-7 0 -14 -3.5t-9 -11.5q-8 -39 -29.5 -84t-48.5 -79q-40 68 -70 144t-59 150q26 12 55.5 26.5t56 33.5t46 43t26.5 55q11 52 -15.5 83.5t-77.5 31.5q-29 0 -56 -7.5t-49.5 -23t-38.5 -38.5t-22 -54q-8 -37 -0.5 -70.5t18.5 -64.5
q-39 -20 -73.5 -43.5t-62.5 -52.5t-48 -64t-29 -77q-23 -105 23.5 -163.5t151.5 -58.5q56 0 111 24.5t100 68.5q11 -22 23.5 -44t26.5 -42l37 -1q8 0 10 7q0 1 -9.5 17.5t-21.5 36.5t-22.5 38t-12.5 23q13 18 28.5 42t29.5 49.5t24.5 50t15.5 44.5zM434 596q-5 -23 -23 -42
t-41 -34.5t-48.5 -27.5t-44.5 -21q-11 25 -17.5 56t-0.5 61q9 42 42.5 64t72.5 22q33 0 50 -23t10 -55zM389 116q-38 -39 -87 -62t-98 -23q-42 0 -72 13.5t-48 38.5t-23 58.5t4 74.5q7 33 24.5 64t42 57.5t54.5 47t62 34.5q31 -78 66.5 -154t74.5 -149z" />
    <glyph glyph-name="quotesingle" unicode="'" horiz-adv-x="143" 
d="M111 701q2 8 -8 8h-26l-9 -8l-36 -165l8 -8h18l9 8z" />
    <glyph glyph-name="parenleft" unicode="(" horiz-adv-x="246" 
d="M274 745q1 3 -1.5 5.5l-5.5 5.5t-7 5l-6 3l-11 -2q-35 -38 -66 -85.5t-55.5 -98t-42.5 -101.5t-28 -97t-14 -98t-1 -103.5t13.5 -100t29.5 -86.5l11 -2q5 2 15.5 8t12.5 11q0 2 -1 2l1 2q-2 20 -10 41t-13 41q-14 68 -14.5 139.5t15.5 145.5q14 69 44 136.5t70 132.5
q14 23 32.5 46t29.5 46l1 2q1 0 1 2z" />
    <glyph glyph-name="parenright" unicode=")" horiz-adv-x="246" 
d="M197 380q10 46 13.5 97t-0.5 101.5t-14.5 98t-29.5 85.5l-11 2q-4 -2 -14.5 -8t-12.5 -11q0 -2 -1 -4q3 -23 11.5 -46.5t13.5 -45.5q12 -65 13 -132.5t-13 -136.5q-16 -74 -47.5 -145.5t-73.5 -139.5q-12 -20 -30 -41t-28 -41q-1 -2 -1 -4q-1 -3 1.5 -5.5l5.5 -5.5t7 -5
l6 -3l11 2q35 38 66 86.5t56.5 100t43.5 103.5t28 98z" />
    <glyph glyph-name="asterisk" unicode="*" horiz-adv-x="454" 
d="M422 655l-12 32l-6 2q-41 -20 -77 -41.5t-75 -45.5q7 23 17 49.5t15 49.5l12 58l-4 4h-36l-6 -4l-12 -58q-5 -25 -8.5 -50.5t-6.5 -50.5q-28 24 -58 47.5t-63 41.5l-6 -1l-27 -33l1 -6q33 -21 68 -38.5t71 -33.5q-42 -14 -85.5 -30.5t-83.5 -38.5l-4 -5l14 -37l5 -2
q42 21 80.5 43t77.5 46q-7 -25 -15.5 -50.5t-13.5 -49.5l-14 -71l4 -5h36l6 5l15 71q5 24 6 49.5t4 49.5q25 -24 53.5 -47t60.5 -40l6 2l27 33l-1 5q-32 22 -64.5 38.5t-67.5 33.5q42 17 82.5 34.5t81.5 37.5z" />
    <glyph glyph-name="plus" unicode="+" horiz-adv-x="408" 
d="M360 385l-5 8l-128 -1l28 128l-6 8h-24l-10 -8l-26 -128l-128 1l-9 -8l-4 -23l5 -8l128 1l-28 -128l6 -8h24l10 8l26 128l128 -1l9 8z" />
    <glyph glyph-name="comma" unicode="," horiz-adv-x="199" 
d="M165 104q1 6 -7 6h-35l-9 -5q-2 -3 -8 -15t-15 -28.5t-19 -35t-18.5 -34t-14 -26t-5.5 -11.5q-2 -8 8 -8h18l7 5q2 3 10 15.5t19 29t23 35t22 34t17 26.5t7 12z" />
    <glyph glyph-name="hyphen" unicode="-" horiz-adv-x="313" 
d="M265 309l-7 8h-196l-10 -8l-4 -23l7 -8h196l10 8z" />
    <glyph glyph-name="period" unicode="." horiz-adv-x="234" 
d="M118 50l-7 8h-46l-10 -8l-10 -48l7 -8h46l10 8z" />
    <glyph glyph-name="slash" unicode="/" horiz-adv-x="399" 
d="M422 698q2 8 -7 8h-29l-8 -5q-5 -9 -25 -43.5t-49 -84.5t-64.5 -111t-72 -124t-70.5 -122t-60.5 -105t-43 -74t-16.5 -29q-2 -8 7 -8h30l8 5q5 9 25 43.5t49 85t64.5 111.5t71.5 123.5t70 121.5t60.5 105t43 74t16.5 29z" />
    <glyph glyph-name="zero" unicode="0" horiz-adv-x="619" 
d="M570 355q8 39 10.5 80.5t-2.5 81t-18.5 75t-36.5 62t-57 42t-81 15.5q-46 0 -86.5 -15.5t-75 -42t-62.5 -62t-50 -75t-37 -81t-23 -80.5q-13 -60 -12.5 -123.5t20 -116.5t61.5 -87t114 -34q69 0 125.5 34.5t99.5 88t71 117t40 121.5zM526 355h-1q-11 -48 -34 -105
t-58.5 -105.5t-83.5 -81t-108 -32.5q-40 0 -68.5 15t-47 40.5t-28 58.5t-12.5 69t0 72.5t10 68.5q10 47 33.5 103t59.5 104t83.5 80t106.5 32q58 0 92 -32t50 -80t16 -104t-10 -103z" />
    <glyph glyph-name="one" unicode="1" horiz-adv-x="395" 
d="M326 701l-7 8h-29l-173 -68l-6 -7q-1 -2 -2.5 -6.5t-2.5 -9.5t-0.5 -9t3.5 -4q4 0 27 9t51 20t53.5 21.5t33.5 13.5l-134 -631h-86l-10 -8l-5 -23l7 -8h216l9 8l5 23l-6 8h-85z" />
    <glyph glyph-name="two" unicode="2" horiz-adv-x="493" 
d="M462 527q11 51 6 86t-25 56.5t-55 30.5t-83 9q-36 0 -74.5 -6.5t-74.5 -15.5l-8 -8q0 -2 -2 -8t-3 -12.5t-1 -11.5t3 -5q7 0 23.5 4.5t37.5 9.5t44.5 9.5t45.5 4.5q72 0 105.5 -33t17.5 -110q-8 -35 -35 -77.5t-66 -88t-85.5 -91.5t-92 -88t-87 -79t-70.5 -63l-7 -32
l7 -8h354h23l9 8l31 146l-6 8h-23l-10 -9l-23 -111q-35 -2 -69 -3.5t-68 -1.5q-41 0 -81 0.5t-81 0.5q30 30 70.5 67t85 78.5t88.5 85.5t81 88.5t63.5 87.5t34.5 82z" />
    <glyph glyph-name="three" unicode="3" horiz-adv-x="473" 
d="M440 538q9 44 2.5 76.5t-26.5 54t-52 32t-74 10.5q-33 0 -68.5 -5.5t-70.5 -15.5l-8 -8q0 -3 -2 -10t-3.5 -14.5t-1 -13t3.5 -5.5q2 0 16.5 5.5t35 11.5t44.5 11.5t47 5.5q62 0 95.5 -35t19.5 -100q-7 -34 -31 -62t-55.5 -47.5t-67.5 -30.5t-67 -11l-9 -8l-5 -23l7 -8
q36 0 70.5 -9.5t60.5 -29t39 -49.5t4 -71q-8 -38 -28.5 -67t-49.5 -49t-63.5 -30.5t-69.5 -10.5q-21 0 -44 5.5t-42.5 11.5t-33.5 11.5t-17 5.5t-5.5 -3t-3.5 -5l-7 -36l5 -8q32 -9 68 -14.5t73 -5.5q44 0 87 12.5t78.5 37t61 61t35.5 84.5q8 37 1.5 67t-24.5 52.5t-45 38.5
t-58 25q25 8 54.5 25t55 40t44.5 49t24 52z" />
    <glyph glyph-name="four" unicode="4" horiz-adv-x="587" 
d="M515 254l-7 8h-109l94 441l-6 8h-29l-7 -3l-423 -454l-4 -23l7 -8h318l-46 -215l5 -8h28l10 8l46 215h109l10 8zM438 641l-82 -379h-270q88 96 176 189.5t176 189.5z" />
    <glyph glyph-name="five" unicode="5" horiz-adv-x="461" 
d="M457 674q1 4 2.5 9.5t2 10.5t-0.5 9t-6 6q-72 -5 -143 -4.5t-143 -0.5l-9 -8l-82 -325q-3 -8 7 -8q29 0 59 4.5t60 4.5q83 0 115.5 -47t15.5 -128q-9 -40 -30 -71t-50.5 -52t-65 -32t-73.5 -11q-20 0 -39.5 5t-36 10.5t-28.5 10.5t-16 5q-3 0 -5.5 -3t-3.5 -5l-7 -34
l5 -8q29 -8 60.5 -13t63.5 -5q46 0 90 13.5t80.5 39t62.5 63.5t37 87q22 106 -19.5 159.5t-148.5 53.5q-39 0 -81 -3q17 65 33.5 129.5t32.5 129.5q38 1 76.5 1.5t77.5 0.5q25 0 49.5 -0.5t48.5 -1.5q7 2 9 8z" />
    <glyph glyph-name="six" unicode="6" horiz-adv-x="547" 
d="M507 700l-5 8l-33 1q-35 1 -70.5 -9.5t-68.5 -25.5q-63 -29 -112 -71t-85 -93t-60.5 -109t-37.5 -119q-11 -52 -10 -103.5t19 -92.5t54.5 -66.5t96.5 -25.5q52 0 97 15.5t80.5 44.5t60.5 70.5t36 94.5q22 105 -17 158t-144 53q-53 0 -108.5 -23.5t-102.5 -58.5
q18 56 53.5 113t83.5 103t105.5 75t120.5 29q8 0 16 -0.5t16 -1.5q2 1 5.5 3t4.5 5zM425 219q-9 -41 -29 -75.5t-49 -59.5t-65.5 -39t-78.5 -14q-46 0 -74 25t-42 62.5t-15 81.5t7 82l3 11q3 1 5.5 3t5.5 4q45 38 98 64t108 26q83 0 113 -45t13 -126z" />
    <glyph glyph-name="seven" unicode="7" horiz-adv-x="489" 
d="M512 698l-6 8q-186 -2 -372 0l-7 -3l-4 -6l-25 -116l7 -8h23l10 9l17 83q78 4 154 4h154q-6 -10 -26 -43t-49 -81t-64.5 -106t-71 -117.5t-69.5 -115.5t-60 -100t-42.5 -71t-16.5 -29q-1 -3 2 -4.5t5 -1.5h28l7 5l401 666z" />
    <glyph glyph-name="eight" unicode="8" horiz-adv-x="549" 
d="M517 543q10 47 1 79t-32.5 52t-58.5 28.5t-77 8.5q-41 0 -79.5 -8.5t-70.5 -28.5t-55 -52t-33 -79q-11 -57 4.5 -100.5t65.5 -64.5q-29 -12 -56 -31t-49.5 -43.5t-38.5 -52.5t-22 -57q-11 -51 -1.5 -89t34.5 -62.5t63.5 -36.5t86.5 -12q47 0 90.5 12t79 36.5t60.5 62.5
t36 89q14 63 -4.5 113.5t-78.5 69.5q24 12 46 30.5t40 40.5t31 46.5t18 48.5zM473 543h-1q-16 -75 -58 -111t-120 -36q-36 0 -65 8.5t-48 26.5t-26 45.5t1 66.5q8 36 25.5 61t42.5 40.5t55.5 22.5t63.5 7t60.5 -7t45.5 -22.5t25 -40.5t-1 -61zM421 194q-9 -41 -28.5 -71.5
t-48 -50.5t-64 -30t-74.5 -10t-70 10t-50.5 30t-27 50.5t1.5 71.5q9 40 28.5 70.5t48 51.5t63 32t73.5 11q37 0 68.5 -11t52 -32t28.5 -51.5t-1 -70.5z" />
    <glyph glyph-name="nine" unicode="9" horiz-adv-x="547" 
d="M519 454q12 57 9 104t-24 81t-60 53t-99 19q-49 0 -92.5 -16t-78.5 -45t-59.5 -69.5t-34.5 -88.5q-9 -45 -5.5 -85.5t21.5 -70.5t50.5 -47.5t81.5 -17.5q54 0 111 21t108 53q-15 -50 -40.5 -105.5t-61.5 -102t-84.5 -77.5t-109.5 -31q-23 0 -43.5 6.5t-40.5 6.5
q-4 0 -7.5 -1.5t-4.5 -6.5l-6 -28l4 -8q22 -6 44 -8t45 -2q59 0 107 22t86.5 59t68.5 84.5t52.5 99.5t37.5 104t25 97zM475 454q-3 -14 -6 -28.5t-7 -28.5l-5 -2q-13 -5 -24 -14t-23 -16q-41 -23 -85 -38.5t-88 -15.5q-39 0 -64 15t-38.5 40.5t-15.5 58t5 67.5q8 38 28 71
t48 58t63 39t74 14q51 0 82.5 -17t47 -47t17 -70t-8.5 -86z" />
    <glyph glyph-name="colon" unicode=":" horiz-adv-x="163" 
d="M151 362l-7 8h-46l-10 -8l-10 -48l7 -8h46l10 8zM86 55l-7 8h-46l-10 -8l-11 -53l7 -8h46l10 8z" />
    <glyph glyph-name="semicolon" unicode=";" horiz-adv-x="206" 
d="M199 362l-7 8h-47l-10 -8l-10 -48l7 -8h47l10 8zM137 104q1 6 -6 6h-35l-9 -5q-2 -3 -8.5 -15t-15.5 -28.5t-19 -35t-18 -34t-13.5 -26t-5.5 -11.5q-2 -8 7 -8h18l7 5q2 3 10 15.5t19 29t23 35t22 34t17 26.5t7 12z" />
    <glyph glyph-name="less" unicode="&#x3c;" horiz-adv-x="421" 
d="M405 533q1 3 -2.5 11.5t-5.5 11.5q-3 3 -6 3t-26.5 -11.5t-58 -29.5t-75 -39.5t-77 -40.5t-63.5 -33.5t-34 -18.5l-6 -7l-2 -10l3 -7q5 -4 26 -18.5t49 -34t59.5 -40.5l58.5 -39t46 -30t21 -12t6 3.5t8 7.5t7.5 8t3.5 6q1 5 -2 8q-24 19 -53.5 39t-60.5 39.5t-62 38
t-57 35.5q8 4 33 17t58.5 30t70.5 36t68.5 35.5t51.5 28t21 13.5z" />
    <glyph glyph-name="equal" unicode="=" horiz-adv-x="408" 
d="M378 466l-6 8h-294l-8 -8l-5 -24l5 -8h294l9 8zM343 305l-5 8h-294l-9 -8l-5 -24l6 -8h294l8 8z" />
    <glyph glyph-name="greater" unicode="&#x3e;" horiz-adv-x="421" 
d="M372 379l-2 7q-6 4 -27 18.5t-49 33.5t-60 40.5t-59 39.5t-46 29.5t-21 11.5q-3 0 -6 -3t-10 -11.5t-8 -11.5q-1 -2 2 -7q54 -42 115 -78.5t118 -74.5q-8 -4 -33.5 -16.5t-59 -29.5t-70.5 -36t-68 -35.5t-51.5 -28t-20.5 -13.5t1.5 -6t3.5 -8.5t5 -8t5 -3.5t26 12
t58.5 30t75 39t77 40.5t63.5 34t34 18.5l5 7z" />
    <glyph glyph-name="question" unicode="?" horiz-adv-x="461" 
d="M440 492q10 48 5 88.5t-25 69.5t-55.5 45t-85.5 16q-17 0 -37 -2t-41 -5.5t-41 -10t-37 -15.5l-5 -7q-1 -3 -3 -9.5t-3 -13t-0.5 -12t4.5 -5.5q2 0 17.5 6.5t38 15t49 15t51.5 6.5q40 0 67.5 -14t42.5 -39t18.5 -58t-4.5 -71q-9 -42 -39.5 -79t-71 -67t-85.5 -53t-82 -36
l-7 -7l-31 -150l6 -8q3 0 9.5 -0.5t13.5 -0.5t12.5 2t6.5 7q7 32 12 64.5t10 64.5q39 17 86 44t89.5 61.5t74 74.5t40.5 83zM114 44l-5 7h-36l-7 -7l-8 -36l5 -7h36l7 7z" />
    <glyph glyph-name="at" unicode="@" horiz-adv-x="697" 
d="M576 325q9 43 -3.5 73t-39.5 48t-63 26t-73 8q-68 0 -125.5 -21.5t-101.5 -61t-74.5 -94.5t-44.5 -122q-15 -71 -6.5 -127t38.5 -95.5t81 -60.5t122 -21l6 7q0 2 2 8.5t3 13t0 11.5t-6 3q-60 0 -103 18.5t-68 52.5t-32 82t6 108q12 56 37.5 104t63.5 82.5t87 54t108 19.5
q27 0 55.5 -6t51 -19.5t34.5 -35.5t5 -55l-5 -26q-23 5 -46 8.5t-47 3.5q-41 0 -82 -7t-76.5 -25.5t-62 -50t-36.5 -79.5q-14 -67 14.5 -110t97.5 -43q52 0 102.5 21.5t91.5 65.5l-17 -86l7 -8h21l8 8zM521 256h-1q-9 -45 -24.5 -85t-41 -70t-63 -47.5t-90.5 -17.5
q-50 0 -69 32.5t-8 80.5q8 38 29.5 62.5t50 38.5t62 19t65.5 5q24 0 46.5 -5t43.5 -13z" />
    <glyph glyph-name="A" unicode="A" horiz-adv-x="649" 
d="M525 6q0 3 -3 27.5t-8 61t-11.5 79t-12.5 81t-10.5 68.5t-5.5 40l-46 338l-7 5h-38l-8 -5q-14 -25 -39 -68t-55.5 -96.5t-65 -113.5t-68.5 -119t-65 -112.5t-54.5 -94.5t-37.5 -66l-14 -25q-1 -3 2.5 -4.5t5.5 -1.5h28l9 5q39 69 77.5 136.5t78.5 136.5h264l40 -273l7 -5
q2 0 7.5 -0.5t12 0t11.5 2t6 4.5zM437 317h-239l193 335z" />
    <glyph glyph-name="B" unicode="B" horiz-adv-x="453" 
d="M431 524q11 51 5 86.5t-27 57t-57 31.5t-85 10q-65 0 -134 -3l-9 -8l-147 -690l7 -8q33 0 65.5 -3t66.5 -3q46 0 86.5 10t73.5 32.5t56 57t34 84.5q6 29 5.5 57t-9.5 52t-26.5 42.5t-45.5 27.5q28 10 51.5 27.5t41.5 40t30 48t18 51.5zM389 524h-1q-16 -73 -65 -112
t-121 -39h-105l63 297l50 2t50 1q37 0 64.5 -8.5t45 -27t22.5 -46.5t-3 -67zM324 178q-9 -41 -27 -69.5t-43.5 -46t-58.5 -25t-72 -7.5q-25 0 -49.5 1.5t-48.5 3.5l64 301q26 0 53 0.5t53 0.5q74 0 109.5 -41.5t19.5 -117.5z" />
    <glyph glyph-name="C" unicode="C" horiz-adv-x="667" 
d="M668 673l-4 6q-45 20 -96 26t-104 6q-176 0 -276 -90.5t-136 -260.5q-18 -82 -11.5 -149.5t38 -115.5t89.5 -74.5t144 -26.5q24 0 54 3t61.5 8.5t62 13.5t54.5 18l6 7q1 2 2.5 7.5t2.5 11.5t0.5 10.5t-3.5 4.5t-6 -1q-58 -17 -112.5 -31.5t-113.5 -14.5q-74 0 -124 25
t-77 69.5t-32.5 104.5t9.5 130q16 74 45 132.5t73 99t104 61.5t138 21q55 0 99.5 -10.5t92.5 -28.5q2 -1 3 -0.5t3 0.5q6 0 8 7z" />
    <glyph glyph-name="D" unicode="D" horiz-adv-x="674" 
d="M626 360q20 93 10 159.5t-48.5 108.5t-104 61.5t-156.5 19.5q-49 0 -97.5 -1.5t-97.5 -1.5l-8 -8l-147 -688l6 -8q52 -2 103 -5t104 -3q87 0 159 25t127.5 72.5t93.5 115t56 153.5zM582 360q-16 -74 -49 -134.5t-82 -103.5t-113 -66.5t-140 -23.5q-44 0 -86.5 1.5
t-84.5 6.5l132 624q41 4 80.5 5t79.5 1q81 0 138.5 -17.5t91 -55t42.5 -96.5t-9 -141z" />
    <glyph glyph-name="E" unicode="E" horiz-adv-x="434" 
d="M490 698l-6 8h-306l-9 -8q-72 -345 -147 -690l6 -8q80 0 158.5 -0.5t158.5 -2.5l9 8q1 4 3 10.5t3 13t0 11t-6 4.5q-34 0 -68.5 -2.5t-68.5 -2.5h-69q-19 0 -38 0.5t-38 0.5l65 307h145q4 0 19 -1t31 -1q17 0 30.5 1.5t15.5 7.5l5 27l-6 8l-232 -3l60 281h145q32 0 62 -2
t62 -2q8 0 10 8z" />
    <glyph glyph-name="F" unicode="F" horiz-adv-x="407" 
d="M430 698l-5 8h-293l-9 -8l-146 -690l5 -8h27l10 8l70 332l154 2q3 0 15.5 -1.5t27 -2.5t26 0.5t12.5 6.5l3 9t3 11.5t0 10t-6 4.5h-226l60 285l133 1h31h47q24 0 47 -2l9 8z" />
    <glyph glyph-name="G" unicode="G" horiz-adv-x="665" 
d="M669 673l-5 6q-45 20 -95.5 26t-104.5 6q-175 0 -275.5 -91t-136.5 -260q-18 -82 -11.5 -149.5t38 -115.5t90 -74.5t144.5 -26.5q23 0 53 3t61 8.5t61.5 13t54.5 17.5l6 7l65 305l-7 8h-196l-10 -8l-5 -23l7 -8h162l-53 -251q-48 -15 -96 -25t-96 -10q-75 0 -125 25
t-77 69.5t-32 104.5t10 130q15 74 44.5 132t74 98.5t105 62t137.5 21.5q56 0 100 -10.5t93 -28.5q2 -1 2.5 -0.5t2.5 0.5q6 0 8 7z" />
    <glyph glyph-name="H" unicode="H" horiz-adv-x="647" 
d="M670 698l-7 8h-26l-10 -8l-64 -302h-462l64 302l-6 8h-26l-10 -8l-146 -690l7 -8h26l10 8l74 349h462l-74 -349l6 -8h26l10 8z" />
    <glyph glyph-name="I" unicode="I" horiz-adv-x="312" 
d="M251 698l-6 8h-27l-10 -8l-140 -660h-77l-10 -8l-4 -23l6 -8h196l10 8l4 23l-6 8h-76z" />
    <glyph glyph-name="J" unicode="J" horiz-adv-x="355" 
d="M329 697l-8 8h-151l-9 -8l-5 -23l7 -8l117 -1q-31 -143 -61 -284.5t-60 -284.5q-6 -30 -17.5 -59.5t-29.5 -53.5t-44.5 -38.5t-62.5 -14.5q-15 0 -25 3.5t-18.5 8.5t-17 10.5t-19.5 9.5q-6 0 -10 -9l-1 -35l3 -6q16 -10 37.5 -15t42.5 -5q47 0 81.5 17.5t59 46.5t40 66.5
t24.5 78.5z" />
    <glyph glyph-name="K" unicode="K" horiz-adv-x="471" 
d="M466 699q0 7 -7 7h-35l-6 -3l-317 -319l66 314l-7 8h-27l-10 -8l-146 -690l7 -8h27l10 8l69 324l209 -329l5 -3q8 0 23 -1t20 8q0 1 -14.5 25.5t-37.5 61t-50 79.5t-52 82t-43.5 68t-23.5 38q5 5 22.5 22t42 41.5t54.5 54t60.5 59.5t59.5 58.5t51 51t36 36.5t14 15z" />
    <glyph glyph-name="L" unicode="L" horiz-adv-x="422" 
d="M298 8q0 3 2 9t3 11.5t0 10t-6 4.5q-31 0 -62 -2t-62 -2h-147l140 659l-6 8h-28l-9 -8l-146 -690l5 -8h306z" />
    <glyph glyph-name="M" unicode="M" horiz-adv-x="819" 
d="M842 698l-7 8h-31l-8 -4l-458 -647l-168 646l-6 5h-31l-10 -8l-146 -690l7 -8h26l10 8q32 152 63.5 303.5t63.5 303.5q36 -155 78 -306.5t85 -304.5l5 -4h21l8 4q111 155 220.5 308.5t221.5 308.5l-133 -613l7 -8h26l10 8z" />
    <glyph glyph-name="N" unicode="N" horiz-adv-x="638" 
d="M654 698l-7 8h-28l-10 -8l-129 -627q-78 161 -158.5 317.5t-162.5 314.5l-5 3h-28l-10 -8l-146 -690l7 -8h26l10 8q32 158 64.5 313t66.5 313q79 -160 160 -316.5t163 -314.5l5 -3h26l10 8z" />
    <glyph glyph-name="O" unicode="O" horiz-adv-x="746" 
d="M698 360q17 80 12 145t-35 110.5t-86 70.5t-140 25t-150 -25t-115.5 -70.5t-82 -110.5t-49.5 -145q-17 -78 -11.5 -144.5t35.5 -116t84.5 -77.5t137.5 -28q81 0 147.5 29t117 78.5t85 116t50.5 142.5zM654 360h-1q-14 -65 -43 -124.5t-73 -105t-102 -72.5t-130 -27
q-71 0 -118 27t-71.5 72.5t-29 105t9.5 124.5q15 69 42.5 126.5t70.5 99.5t100.5 65t132.5 23q74 0 122 -23t73 -65t28.5 -99.5t-11.5 -126.5z" />
    <glyph glyph-name="P" unicode="P" horiz-adv-x="430" 
d="M461 521q11 52 4.5 87.5t-28 58t-58 32.5t-85.5 10q-56 0 -116 -3l-9 -8l-147 -690l7 -8h27l10 8l66 309q32 -7 72 -7q47 0 89.5 15t76 43t57.5 66.5t34 86.5zM418 521h-1q-17 -80 -71 -127.5t-135 -47.5q-17 0 -36.5 0.5t-36.5 3.5l67 319q21 1 41.5 1.5t40.5 0.5
q76 0 112 -34t19 -116z" />
    <glyph glyph-name="Q" unicode="Q" horiz-adv-x="746" 
d="M717 360q17 80 12 145t-34.5 110.5t-85.5 70.5t-140 25t-150.5 -25t-116 -70.5t-82 -110.5t-49.5 -145q-16 -74 -12 -138.5t31 -113.5t77.5 -79t128.5 -34q-1 -2 -2 -3t-1 -2q-15 -81 17 -129.5t117 -48.5q39 0 74 13t62.5 37t46.5 56.5t27 71.5q2 8 -7 8h-30l-10 -8
q-6 -29 -19 -54.5t-33 -44t-46 -29.5t-57 -11t-52.5 10.5t-33.5 29.5t-14.5 44t3.5 55v5q78 4 141 35t111 80t80 113.5t47 136.5zM673 360h-1q-14 -65 -43 -124.5t-73 -105t-102 -72.5t-130 -27q-71 0 -118 27t-71.5 72.5t-29 105t9.5 124.5q15 69 43 126.5t70.5 99.5
t100.5 65t133 23q74 0 122 -23t72.5 -65t28 -99.5t-11.5 -126.5z" />
    <glyph glyph-name="R" unicode="R" horiz-adv-x="509" 
d="M469 526q11 50 4.5 85t-28 56.5t-57 31.5t-82.5 10q-68 0 -138 -3l-8 -8l-147 -690l6 -8h28l10 8l68 318h113q22 0 39.5 -19t30.5 -49t23 -66.5t17.5 -72t13 -66.5t9.5 -48l6 -5q3 0 9.5 -0.5t14 0t14 2t7.5 5.5q0 2 0.5 3t-1.5 3q-8 31 -17 60.5t-16 61.5
q-5 22 -11 52.5t-16 60.5t-23.5 56t-31.5 38q64 22 106.5 71.5t56.5 112.5zM427 526h-1q-7 -34 -24 -63.5t-41.5 -51.5t-55.5 -34.5t-66 -12.5h-107l64 305q26 1 51.5 1.5t51.5 0.5q73 0 108.5 -33.5t19.5 -111.5z" />
    <glyph glyph-name="S" unicode="S" horiz-adv-x="483" 
d="M472 682l-5 8q-32 12 -71 16.5t-76 4.5q-39 0 -75.5 -9.5t-66.5 -30t-52 -51.5t-31 -73q-9 -45 -1.5 -76.5t26.5 -54.5t46 -40t55.5 -31.5t55.5 -30t46 -36t27.5 -48t0.5 -67.5q-8 -35 -27.5 -60t-46.5 -41t-58.5 -23.5t-62.5 -7.5q-70 0 -128 26q-6 3 -12.5 7t-13.5 6
q-2 1 -5 1q-8 0 -8 -7l-8 -38l5 -7q36 -14 78.5 -19.5t84.5 -5.5q41 0 80.5 9.5t72.5 30.5t57 53.5t34 78.5t2.5 78t-26.5 55t-45.5 40t-55 31.5t-55.5 29.5t-46.5 35t-28 47.5t-0.5 66.5q7 33 23.5 56.5t40 39t52.5 22.5t59 7q29 0 46 -2.5t30.5 -6.5t27.5 -10t36 -12
q1 -1 5 -1q3 0 5 3t2 5z" />
    <glyph glyph-name="T" unicode="T" horiz-adv-x="556" 
d="M580 698l-7 8h-439l-9 -8l-3 -9t-2.5 -12t0.5 -10.5t6 -4.5q30 0 60 2.5t60 2.5h78l-140 -659l6 -8h27l10 8l140 659h84q29 0 56.5 -1.5t55.5 -3.5l11 8z" />
    <glyph glyph-name="U" unicode="U" horiz-adv-x="624" 
d="M648 698l-6 8h-28l-10 -8l-5 -22q-23 -106 -45.5 -212t-54.5 -212q-14 -47 -36.5 -87t-54 -69.5t-72.5 -46.5t-92 -17q-56 0 -90.5 15.5t-52.5 44t-21 69.5t3 92q14 111 38 222t47 223l-6 8h-28l-10 -8l-6 -28q-23 -105 -43.5 -209.5t-34.5 -209.5q-8 -62 -3.5 -109.5
t27 -80.5t64.5 -50t108 -17q61 0 110 19t87.5 53t65.5 81.5t43 104.5q30 106 54 212t47 212z" />
    <glyph glyph-name="V" unicode="V" horiz-adv-x="675" 
d="M699 700q1 6 -6 6h-30l-8 -5l-398 -639l-88 639l-7 5q-2 0 -8 0.5t-12.5 0t-11.5 -2t-6 -4.5t2 -27t8 -58.5t11 -75.5t12 -78.5t10 -65.5t6 -38l50 -352l7 -5h26l8 5q7 12 29.5 47.5t54.5 86t70.5 111.5t77 122.5t75 120t65 104t46 73.5t17.5 30z" />
    <glyph glyph-name="W" unicode="W" horiz-adv-x="933" 
d="M955 696q2 3 0 6.5t-6 3.5h-29l-8 -6q-66 -156 -131.5 -310.5t-131.5 -310.5l-87 617l-6 5h-28l-9 -5q-88 -155 -174.5 -308.5t-174.5 -308.5l-2 621l-6 6q-4 0 -10 0.5t-12 0.5t-11 -2.5t-6 -8.5q-2 -10 -2.5 -22.5t0.5 -25t2 -25.5t1 -23l1 -242l2 -352l7 -6h28l9 5
q88 158 177 315t177 315l88 -630l7 -5h28l9 6q74 174 148.5 345t149.5 345z" />
    <glyph glyph-name="X" unicode="X" horiz-adv-x="626" 
d="M634 700q1 3 -2 4.5t-5 1.5h-34l-8 -4l-251 -290l-119 290l-6 4q-2 0 -8.5 0.5t-13 0t-12 -2t-6.5 -4.5q-1 -2 8 -24.5t22 -56t29 -73.5t31 -76t26 -63t14 -35q-7 -8 -33 -37t-62 -69t-75.5 -85t-73.5 -83t-56.5 -64t-22.5 -28q-1 -3 2.5 -4.5t5.5 -1.5h31l8 4l291 332
l140 -332l6 -4q3 0 9.5 -0.5t13.5 -0.5t12.5 1.5t6.5 5.5q0 2 -10 27.5t-26 63.5t-35 82.5t-36.5 85t-30.5 70.5t-17 39q6 7 29.5 33t55 62t67 75.5t65.5 73.5t50 57t20 25z" />
    <glyph glyph-name="Y" unicode="Y" horiz-adv-x="511" 
d="M535 701q1 2 -2 3.5t-5 1.5h-26l-8 -5q-61 -90 -121.5 -178.5t-120.5 -178.5l-84 357l-6 5q-2 0 -8 0.5t-12.5 0t-11.5 -1.5t-6 -4t5.5 -31t16 -69t21.5 -89.5t23 -92.5t19 -77t11 -43l-62 -291l5 -8h29l10 8l62 293q6 8 28 40.5t52 76t63.5 92t61.5 90.5t46.5 70
t19.5 31z" />
    <glyph glyph-name="Z" unicode="Z" horiz-adv-x="584" 
d="M601 698l-7 8h-450l-9 -8l-3 -9t-3 -11.5t0 -10t6 -4.5q204 0 407 6l-560 -637l-5 -24l5 -8h234q117 0 235 -3l8 8q1 3 2.5 9t2.5 12t0.5 10.5t-4.5 4.5q-44 0 -88 -2t-88 -2h-250l562 639z" />
    <glyph glyph-name="bracketleft" unicode="[" horiz-adv-x="228" 
d="M252 721q0 2 2 7t2.5 10t-0.5 9t-5 4q-28 0 -56 -0.5t-57 -0.5l-8 -8l-160 -750l6 -8h111q2 0 5 2.5t5 4.5l5 22l-7 8q-17 3 -36 2t-37 2l146 684l75 4z" />
    <glyph glyph-name="backslash" unicode="\" horiz-adv-x="400" 
d="M277 8q0 1 -4 29t-11 74t-16 105t-19 122t-19.5 124t-17.5 111t-13.5 84.5t-6.5 43.5l-6 5q-2 0 -8.5 0.5t-13.5 0.5q-6 0 -12 -2t-7 -7q0 -1 4 -29t11 -74t16 -105t19 -122t19.5 -124t17.5 -111t13 -84.5t7 -43.5l6 -5q2 0 8.5 -0.5t12.5 -0.5q7 0 13 2t7 7z" />
    <glyph glyph-name="bracketright" unicode="]" horiz-adv-x="226" 
d="M256 742l-6 8q-28 0 -55 0.5t-55 0.5q-8 0 -10 -8l-5 -22q1 -5 11 -7t23 -2.5l26 -1t19 -1.5l-146 -684l-75 -4l-8 -8l-5 -22q0 -7 6 -7h111l9 8z" />
    <glyph glyph-name="asciicircum" unicode="^" horiz-adv-x="515" 
d="M447 560q0 2 -9 15t-23.5 31.5t-31.5 39.5t-32.5 40.5t-27 33.5t-14.5 18q-2 2 -6 2h-51l-217 -174l-3 -6q-2 -8 7 -8h27l206 160l138 -160q8 0 20 -1t17 9z" />
    <glyph glyph-name="underscore" unicode="_" horiz-adv-x="568" 
d="M576 -198l-6 8h-586l-10 -8l-4 -23l6 -8h586l10 8z" />
    <glyph glyph-name="grave" unicode="`" horiz-adv-x="272" 
d="M198 558q0 1 -4.5 17t-12 39.5t-16.5 51t-17.5 52t-14.5 43t-8 23.5l-6 4h-35q-8 0 -11 -8q0 -1 6 -17t16 -39.5t21.5 -51t22 -52t18 -42.5t9.5 -23l6 -4q5 0 14.5 -0.5t11.5 7.5z" />
    <glyph glyph-name="a" unicode="a" horiz-adv-x="448" 
d="M420 340q9 42 4 68.5t-22.5 42.5t-46 22t-66.5 6q-18 0 -39 -2.5t-42.5 -7.5t-42.5 -13t-39 -18l-5 -7q0 -3 -2 -9t-3 -13t-0.5 -12t4.5 -5q2 0 17 8t38 17.5t51 17.5t56 8q27 0 48 -5t34 -16.5t17 -31.5t-2 -50l-11 -54q-42 1 -95 0.5t-103 -14t-89 -44.5t-52 -91
q-7 -32 -2 -58.5t20 -45t39 -29t56 -10.5q57 0 104.5 28t82.5 78l-18 -92l7 -8h22l9 8zM359 252h-1q-2 -13 -5.5 -26t-7.5 -26q-9 -33 -27.5 -63.5t-44 -54.5t-57 -38t-67.5 -14q-22 0 -38 9t-26 23.5t-13 34t2 40.5q8 37 29 60t49.5 36t61 17t63.5 4h41t41 -2z" />
    <glyph glyph-name="b" unicode="b" horiz-adv-x="501" 
d="M475 277q21 101 -15.5 151.5t-139.5 50.5q-49 0 -96 -19t-83 -61l75 353l-7 8h-26l-8 -8l-159 -746v-5t3 -3h13q9 0 15 2q29 -4 59 -5t61 -1q60 0 111 23.5t90.5 62.5t67 90t39.5 107zM434 277q-10 -47 -32.5 -91.5t-55.5 -79t-76 -55.5t-95 -21h-22q-16 0 -34 0.5
t-34.5 2t-21.5 3.5l59 277q6 29 27 53t48.5 41t58 26.5t56.5 9.5q82 0 110.5 -43t11.5 -123z" />
    <glyph glyph-name="c" unicode="c" horiz-adv-x="479" 
d="M458 450l-3 7q-29 12 -66.5 18t-70.5 6q-54 0 -98 -16.5t-77.5 -47.5t-56.5 -74t-34 -95q-12 -55 -10 -101.5t20.5 -80.5t55.5 -53t96 -19q36 0 82.5 9t82.5 28l6 7q2 8 5 20.5t-5 16.5q-1 0 -16 -7t-38 -15.5t-52 -15.5t-57 -7q-48 0 -77.5 18t-44 48t-15.5 69.5t8 82.5
q9 42 27.5 78.5t45.5 62.5t63 41t81 15q23 0 45 -5t40.5 -11.5t31.5 -11.5t17 -5q6 0 8 7z" />
    <glyph glyph-name="d" unicode="d" horiz-adv-x="507" 
d="M536 752l-5 8h-26l-10 -8l-59 -280q-30 3 -61 5t-62 2q-126 0 -197.5 -62t-97.5 -187q-11 -51 -9 -94.5t19.5 -75t52.5 -49t90 -17.5q54 0 103 28.5t83 76.5l-17 -91l6 -8h23l9 8zM427 430l-44 -200q-8 -37 -25 -73t-42.5 -64t-59.5 -45.5t-76 -17.5q-45 0 -73 16
t-41.5 43.5t-14.5 63.5t8 77q22 103 81.5 158t165.5 55q27 0 61.5 -2.5t59.5 -10.5z" />
    <glyph glyph-name="e" unicode="e" horiz-adv-x="492" 
d="M445 252q9 45 9.5 86t-13 73t-43.5 51t-82 19t-95.5 -17t-77 -47t-56.5 -72t-34 -92q-12 -58 -11.5 -105.5t18.5 -81.5t55.5 -53t99.5 -19q18 0 38.5 2.5t42 7t42 11.5t37.5 16l6 7q0 3 2 9t2.5 12t0 11t-4.5 5q-2 0 -17 -7t-37.5 -15.5t-49.5 -15.5t-54 -7
q-47 0 -76.5 16t-44.5 43.5t-17 65t7 81.5q86 0 171.5 2.5t171.5 5.5zM409 281q-71 -5 -140.5 -6.5t-139.5 -1.5h-29q9 37 28 69t46.5 54.5t61.5 35.5t72 13q34 0 56.5 -14t34 -37.5t14 -53t-3.5 -59.5z" />
    <glyph glyph-name="f" unicode="f" horiz-adv-x="404" 
d="M418 713l-4 7q-16 9 -40 12.5t-44 3.5q-63 0 -98 -26t-54.5 -66.5t-28.5 -89.5t-19 -95h-62l-10 -8l-5 -22l8 -8h61l-88 -413l6 -8h25l10 8l88 413h168l9 8l5 22l-7 8h-168l25 116q6 27 15.5 49.5t24.5 39.5t36.5 26.5t51.5 9.5q19 0 40 -6t34 -19l14 5z" />
    <glyph glyph-name="g" unicode="g" horiz-adv-x="456" 
d="M440 459l-6 8q-26 7 -55 9.5t-57 2.5q-52 0 -99.5 -21.5t-86 -57.5t-65.5 -83t-38 -98q-9 -41 -9 -81t12 -71.5t39 -51t74 -19.5q50 0 95.5 29t77.5 71l-25 -118q-7 -34 -22.5 -64t-39 -53t-54.5 -36.5t-69 -13.5q-13 0 -30 2t-33 7t-29.5 12.5t-20.5 19.5l-5 3
q-8 0 -10 -8l-8 -39q8 -10 24 -16.5t34.5 -10.5t37.5 -5.5t32 -1.5q49 0 88.5 17t69 46t49.5 68t29 83zM395 432l-42 -191q-7 -32 -25 -69t-44 -68t-58.5 -51.5t-68.5 -20.5t-55.5 18t-28 45.5t-7 60.5t7.5 63q9 42 31 82.5t54 72t71.5 50.5t83.5 19q21 0 41 -2.5t40 -8.5z
" />
    <glyph glyph-name="h" unicode="h" horiz-adv-x="491" 
d="M427 313q9 44 2 75.5t-27 51.5t-52.5 29.5t-74.5 9.5q-48 0 -95 -19.5t-84 -60.5l75 353l-6 8h-26l-10 -8l-158 -744l6 -8h26l10 8l65 307q6 29 27 52.5t48.5 40.5t58 26t55.5 9q31 0 55.5 -8t41 -24.5t22.5 -40.5t-1 -57l-65 -305l6 -8h26l10 8z" />
    <glyph glyph-name="i" unicode="i" horiz-adv-x="155" 
d="M172 634l-7 8h-40l-8 -8l-9 -39l7 -7h40l8 7zM129 466l-6 8h-26l-10 -8l-98 -458l8 -8h26l8 8z" />
    <glyph glyph-name="j" unicode="j" horiz-adv-x="334" 
d="M375 634l-7 8h-39l-8 -8l-9 -39l6 -7h39l9 7zM332 466l-5 8h-26l-10 -8q-23 -110 -46 -219.5t-46 -219.5q-6 -29 -16 -66.5t-27.5 -71t-45 -56.5t-67.5 -23q-15 0 -33 5.5t-26 18.5l-6 3q-7 0 -9 -8l-6 -29l3 -7q13 -10 32.5 -14.5t37.5 -4.5q53 0 88 24t57.5 61t35.5 82
t22 86z" />
    <glyph glyph-name="k" unicode="k" horiz-adv-x="448" 
d="M423 474q2 8 -7 8h-35q-66 -47 -131.5 -93t-131.5 -93l97 457l-6 8h-25l-10 -8l-158 -745l7 -8h25l10 8l52 244l208 -252h36q3 0 5.5 3t4.5 5q0 4 -2 6q-54 67 -109 132t-112 131l278 191z" />
    <glyph glyph-name="l" unicode="l" horiz-adv-x="328" 
d="M256 57q-2 0 -8 -4t-15.5 -9.5t-22.5 -9.5t-31 -4q-41 0 -58 23t-20 56.5t3.5 71t12.5 66.5q26 127 53.5 252.5t54.5 252.5l-6 8h-26l-9 -8l-107 -505q-9 -41 -15.5 -86t0.5 -82t32 -61t78 -24q18 0 39.5 4.5t38.5 14.5l5 7q1 4 2.5 9.5t2.5 11t0.5 10t-4.5 6.5z" />
    <glyph glyph-name="m" unicode="m" horiz-adv-x="754" 
d="M720 313q16 77 -14.5 121.5t-110.5 44.5q-51 0 -97 -26t-79 -70q-10 44 -46.5 70t-83.5 26q-46 0 -89 -22t-76 -60l12 69l-6 8h-22l-10 -8l-97 -458l6 -8h26l10 8l64 304q6 27 24.5 51t43 42t52.5 28t54 10q60 0 81.5 -36.5t9.5 -93.5l-65 -305l6 -8h26l10 8l65 305
q6 27 24 50.5t43 41.5t53 28t53 10q62 0 82.5 -35.5t8.5 -94.5l-65 -305l6 -8h26l10 8z" />
    <glyph glyph-name="n" unicode="n" horiz-adv-x="491" 
d="M457 313q9 44 2 75.5t-27.5 51.5t-53 29.5t-73.5 9.5q-50 0 -97.5 -21.5t-83.5 -63.5l12 72l-6 8h-22l-10 -8l-97 -458l6 -8h26l10 8l67 314q5 26 26.5 48t50 38.5t58.5 25.5t52 9q31 0 55.5 -8t41 -24.5t22.5 -40.5t-1 -57l-65 -305l6 -8h26l10 8z" />
    <glyph glyph-name="o" unicode="o" horiz-adv-x="543" 
d="M493 239q12 55 9 100t-23 76.5t-58 48.5t-97 17q-117 0 -183.5 -65t-90.5 -177q-11 -53 -7 -98t25 -77.5t59 -51t94 -18.5t101 18.5t79.5 51t57.5 77.5t34 98zM452 239h-1q-9 -42 -27.5 -80t-46.5 -66.5t-65.5 -45.5t-83.5 -17t-76.5 17t-47 45.5t-19.5 66.5t6 80
q9 44 27.5 82t46.5 65.5t66 43t86 15.5t78.5 -15.5t46.5 -43.5t17.5 -65.5t-7.5 -81.5z" />
    <glyph glyph-name="p" unicode="p" horiz-adv-x="494" 
d="M474 267q22 100 -14.5 157t-139.5 57q-48 0 -92 -21t-79 -61l15 67l-7 8h-26l-8 -8l-147 -691l5 -8h26l10 8l49 232q26 -6 53 -9.5t55 -3.5q57 0 106.5 23t89 61t66.5 87t38 102zM433 267q-9 -45 -31 -87.5t-54.5 -76t-74.5 -53.5t-91 -20q-28 0 -55 3t-52 13l48 226
q7 34 24 65.5t41.5 55.5t55.5 38t68 14q42 0 69.5 -13t41.5 -36.5t16.5 -56.5t-6.5 -72z" />
    <glyph glyph-name="q" unicode="q" horiz-adv-x="498" 
d="M521 467q1 2 0 5t-3 3q-8 0 -16 1.5t-15 -0.5q-30 1 -59.5 2t-60.5 1q-118 0 -193.5 -66t-100.5 -182q-11 -49 -11.5 -92t13.5 -75.5t46.5 -51t88.5 -18.5q57 0 106.5 27.5t85.5 78.5l-69 -325l6 -8h26l9 8zM476 437h-1q-12 -59 -25.5 -118t-29.5 -118q-9 -34 -28.5 -65
t-46 -54.5t-59 -37.5t-68.5 -14q-44 0 -68.5 17.5t-35 45.5t-9.5 64t9 74q10 48 31.5 87t52.5 66.5t72 43t90 15.5q29 0 58.5 -0.5t57.5 -5.5z" />
    <glyph glyph-name="r" unicode="r" horiz-adv-x="330" 
d="M371 468l-6 8q-7 2 -15 2h-17q-45 0 -88 -20t-78 -57l14 65l-6 8h-26l-9 -8l-97 -458l6 -8h26l10 8l63 299q6 28 22 51.5t38.5 40.5t49 27t53.5 10q9 0 21 -0.5t21 -4.5l11 7z" />
    <glyph glyph-name="s" unicode="s" horiz-adv-x="391" 
d="M372 457l-5 7q-28 9 -59.5 13t-62.5 4q-26 0 -53 -5.5t-49.5 -18.5t-39.5 -34t-23 -51q-9 -43 3.5 -69.5t36.5 -44.5t53.5 -30.5t54 -26.5t39 -33.5t7.5 -51.5q-5 -24 -19 -40.5t-33 -26.5t-41 -14.5t-42 -4.5q-25 0 -40 2.5t-26.5 7t-23 10.5t-29.5 13q-7 0 -9 -8
l-7 -33l4 -6q25 -11 58.5 -16.5t62.5 -5.5t59 6t56 20.5t45 37.5t26 56q9 42 -4 68.5t-37 44t-53.5 30.5t-54 27.5t-38.5 34.5t-7 53q4 21 16 35t28.5 22.5t35 12t36.5 3.5q19 0 38 -4t35.5 -8.5t29.5 -8.5t19 -4q2 0 4 3t2 5z" />
    <glyph glyph-name="t" unicode="t" horiz-adv-x="412" 
d="M385 451l-8 8h-169l30 141l-7 8h-20l-10 -8q-8 -35 -16.5 -70.5t-17.5 -70.5h-69l-9 -8l-5 -22l7 -8h69l-59 -278q-7 -33 -7.5 -60.5t9.5 -47t31 -30.5t57 -11q25 0 56.5 7t56.5 21l6 6q0 3 2 9t3 12t0.5 11t-4.5 5t-15 -5.5t-27 -12t-34.5 -12t-37.5 -5.5
q-24 0 -37.5 10t-19 26t-4.5 36.5t5 40.5l59 278h170l10 8z" />
    <glyph glyph-name="u" unicode="u" horiz-adv-x="483" 
d="M482 466l-6 8h-26l-9 -8q-14 -67 -28.5 -133t-28.5 -133q-8 -35 -28 -66t-48.5 -54t-62.5 -36.5t-68 -13.5q-36 0 -58 13t-32.5 35.5t-11 51t6.5 60.5l61 276q0 7 -5 8h-26l-10 -8q-16 -69 -31.5 -138t-29.5 -138q-9 -41 -7 -77t17 -62.5t44 -41.5t74 -15
q59 0 108.5 27.5t87.5 78.5l-19 -92l6 -8h23l10 8z" />
    <glyph glyph-name="v" unicode="v" horiz-adv-x="474" 
d="M473 468q1 3 -2 4.5t-5 1.5h-26l-8 -5q-57 -100 -114.5 -197.5t-115.5 -196.5l-57 394l-7 5q-2 0 -8 0.5t-12.5 0t-12 -2t-6.5 -4.5t4 -35.5t12.5 -80.5t16.5 -105t17 -107.5t14 -87.5t8 -47l7 -5h15l8 5q4 7 18 30.5t33.5 56.5t43.5 73.5t48.5 82t47.5 80.5t41 69.5
t29 49.5t11 21z" />
    <glyph glyph-name="w" unicode="w" horiz-adv-x="719" 
d="M718 469q1 2 -2 3.5t-5 1.5h-22l-9 -6q-50 -101 -100 -200.5t-101 -200.5l-66 402l-6 5h-18l-8 -5q-57 -100 -113 -199t-113 -199l-11 397l-7 6q-3 0 -9 0.5t-12.5 0t-11.5 -2.5t-5 -8l14 -458l6 -6h30l9 5q57 100 112.5 199.5t112.5 199.5l65 -399l7 -5h25l9 6l23.5 47
t44 87.5t53.5 107.5t52 105t40 80.5t16 35.5z" />
    <glyph glyph-name="x" unicode="x" horiz-adv-x="510" 
d="M492 467q1 3 -1.5 5t-5.5 2h-32l-7 -4q-45 -51 -91.5 -99t-93.5 -97q-26 49 -51.5 98t-51.5 99l-6 3q-8 0 -22.5 1t-19.5 -8q0 -1 8 -15.5t20.5 -37t27.5 -49t29 -51t24.5 -43t13.5 -24.5q-7 -7 -27 -27.5t-45.5 -46.5t-53.5 -54.5t-51.5 -53t-39 -41t-15.5 -17.5
q-1 -3 1.5 -5t5.5 -2h32l7 3q51 55 101 109.5t102 107.5q29 -54 58 -107t55 -109l7 -4q8 0 22 -1t19 8l-8.5 16.5t-22 41t-30 54t-31 56t-26 46.5t-14.5 26q6 7 24.5 25.5t42 43t49.5 50.5t47.5 48.5t35.5 37t14 15.5z" />
    <glyph glyph-name="y" unicode="y" horiz-adv-x="546" 
d="M566 469q1 2 -1.5 3.5t-4.5 1.5h-31l-9 -5q-67 -104 -134.5 -206.5t-135.5 -206.5l-86 413l-5 5q-2 0 -8 0.5t-13 0t-12 -2t-6 -4.5q0 -2 6.5 -34t16 -80t21.5 -104.5t22.5 -107t18.5 -87.5t10 -46q-4 -5 -15 -21.5t-26 -38.5t-31.5 -46t-30.5 -45t-23 -35.5t-9 -16.5
q-1 -3 1.5 -4t4.5 -1h30l8 4q6 10 28.5 43t54.5 81t71.5 106t79 117.5t77 116t66.5 100.5t47 71t18 29z" />
    <glyph glyph-name="z" unicode="z" horiz-adv-x="484" 
d="M478 466l-7 8h-350l-9 -8l-5 -21l7 -8h292l-401 -410l-4 -19l7 -8h368l9 8l5 21l-7 8h-308l398 409z" />
    <glyph glyph-name="braceleft" unicode="{" horiz-adv-x="243" 
d="M275 754l-7 8h-27q-26 0 -41.5 -13.5t-25 -33.5t-14 -42t-8.5 -40q-12 -56 -20.5 -113.5t-26.5 -113.5q-5 -14 -18.5 -20t-26.5 -6l-10 -8l-3 -15l7 -8q20 0 27 -8.5t7 -22.5q0 -13 -5 -28.5t-8 -30.5q-12 -57 -26.5 -113.5t-21.5 -113.5q-2 -23 11.5 -38.5t36.5 -15.5
h27l9 7l5 24l-6 8q-23 0 -31.5 6.5t-8.5 17.5q0 12 4.5 28.5t9.5 37.5q11 54 26.5 111t20.5 111q2 15 -6.5 25t-23.5 12q14 3 28.5 13t17.5 25l66 300q1 7 7 11t13 5.5t14 1.5h13l10 8z" />
    <glyph glyph-name="bar" unicode="|" horiz-adv-x="145" 
d="M194 752l-8 8h-28l-9 -8l-198 -927l8 -8h28l9 8z" />
    <glyph glyph-name="braceright" unicode="}" horiz-adv-x="247" 
d="M214 707q5 25 -8 40t-38 15h-27l-9 -8l-5 -24l7 -8h12t12.5 -1t9.5 -4.5t3 -10.5q-2 -28 -8.5 -57.5t-12.5 -58.5q-10 -46 -21.5 -94t-14.5 -93q-1 -14 7.5 -23.5t21.5 -13.5q-21 -6 -33.5 -22t-19.5 -36t-10.5 -42t-6.5 -38q-11 -48 -19.5 -97t-25.5 -97
q-6 -15 -19.5 -16t-25.5 -1l-10 -8l-5 -24l8 -7h27q27 0 43.5 18t26.5 43t14.5 52t8.5 45q11 48 19.5 96.5t25.5 95.5q5 13 19 17t25 4l9 8l3 15l-7 8q-11 0 -23 5.5t-10 19.5z" />
    <glyph glyph-name="asciitilde" unicode="~" horiz-adv-x="526" 
d="M480 657l-8 19l-5 4q-3 0 -11.5 -7t-21.5 -16t-30 -16t-38 -7q-26 0 -49 7.5t-46 16t-46.5 16t-49.5 7.5q-8 0 -28 -5.5t-41.5 -13.5t-39 -18.5t-19.5 -19.5q0 -2 1 -6.5t3.5 -9t4.5 -8t3 -3.5q4 0 14.5 7.5t25 16.5t32.5 16.5t36 7.5q25 0 48.5 -7t47 -16t46.5 -16
t49 -7q29 0 62 14t57 34z" />
    <glyph glyph-name="exclamdown" unicode="&#xa1;" horiz-adv-x="148" 
d="M173 704l-5 7h-36l-7 -7l-8 -36l5 -7h36l7 7zM147 600l-7 8h-29l-8 -8l-128 -598l6 -8h29l9 8z" />
    <glyph glyph-name="cent" unicode="&#xa2;" horiz-adv-x="479" 
d="M460 450l-4 7q-26 11 -58 16.5t-62 7.5l10 47l-7 8h-29l-8 -8l-11 -48q-50 -5 -89.5 -24t-69 -49.5t-49 -71t-29.5 -87.5q-11 -49 -10.5 -92.5t15 -77.5t46 -56t83.5 -27l-14 -65l6 -8h29l9 8l14 64q33 2 75 11t74 26l5 7q1 4 3 9.5t3 11t0 10t-5 6.5q-2 0 -6 -2
q-34 -20 -70 -30.5t-71 -12.5l88 415q16 -1 35.5 -6.5t37 -11.5t30.5 -10.5t15 -4.5q7 0 7 7zM283 443l-87 -411q-41 6 -64.5 26t-34.5 50t-10.5 66t8.5 74q8 37 23 70.5t38.5 59.5t55 43t71.5 22z" />
    <glyph glyph-name="sterling" unicode="&#xa3;" horiz-adv-x="476" 
d="M479 682l-5 8q-29 10 -61 15.5t-65 5.5q-35 0 -69.5 -8t-63 -25.5t-49 -45t-28.5 -67.5q-5 -23 -5.5 -45.5t1.5 -44.5t5 -44.5t3 -44.5h-64l-9 -8l-6 -25l8 -8q17 0 34.5 1t35.5 1l-4 -20l-4 -20q-7 -33 -20.5 -70t-33 -73.5t-44 -69.5t-53.5 -57l-6 -29l7 -8h358l10 8
q1 3 2.5 9t2.5 11.5t0 10t-6 4.5q-37 0 -75 -2t-76 -2h-164q23 27 45.5 60.5t41.5 68.5t33.5 71t21.5 68q2 10 3.5 20t2.5 20l171 -4l10 8l6 27l-8 8h-177q1 22 -1.5 44.5t-4.5 44.5t-2 44q0 23 5 46q6 30 22 50.5t37.5 33t47 18t51.5 5.5q21 0 41.5 -4t37.5 -9.5t29.5 -9.5
t16.5 -4q3 0 5.5 3t2.5 5z" />
    <glyph glyph-name="yen" unicode="&#xa5;" horiz-adv-x="503" 
d="M527 701q1 2 -1.5 3.5t-4.5 1.5h-27l-8 -5q-60 -88 -119 -175.5t-119 -175.5l-80 351l-6 5q-2 0 -8 0.5t-12.5 0t-11.5 -1.5t-6 -4t4.5 -28t14.5 -62t19.5 -80.5t20 -83t17 -69.5t9.5 -39h-114l-9 -8l-4 -22l5 -8h127l-26 -124h-127l-9 -8l-5 -22l6 -8h127l-28 -131l5 -8
h29l10 8l28 131h123l9 8l5 22l-6 8h-123l26 124h123l10 8l4 22l-6 8h-108q5 8 25.5 37t47.5 68.5t57 83.5t56 82t42.5 63.5t17.5 27.5z" />
    <glyph glyph-name="brokenbar" unicode="&#xa6;" horiz-adv-x="505" 
d="M512 488q5 25 -8.5 42.5t-38.5 17.5t-46.5 -17.5t-26.5 -42.5t8.5 -42.5t38.5 -17.5t46.5 17.5t26.5 42.5zM242 488q5 25 -8.5 42.5t-38.5 17.5t-46.5 -17.5t-26.5 -42.5t8.5 -42.5t38.5 -17.5t46.5 17.5t26.5 42.5zM406 697l-7 8h-151l-10 -8l-5 -23l8 -8l117 -1
q-31 -143 -61 -284.5t-60 -284.5q-6 -30 -17.5 -59.5t-30 -53.5t-45 -38.5t-62.5 -14.5q-15 0 -25 3.5t-18.5 8.5t-16.5 10.5t-19 9.5q-8 0 -10 -9l-1 -35l3 -6q16 -10 37.5 -15t42.5 -5q47 0 81.5 17.5t59 46.5t40 66.5t24.5 78.5zM331 -127l-5 6h-23l-8 -6
q-10 -45 -41.5 -76.5t-79.5 -31.5q-49 0 -67 31t-8 77l-4 6h-22l-9 -6q-12 -63 13 -100.5t91 -37.5q63 0 105.5 38.5t57.5 99.5zM495 466q-2 -8 -8.5 -13.5t-14.5 -5.5t-12.5 5.5t-2.5 13.5t8.5 13.5t14.5 5.5t12.5 -5.5t2.5 -13.5zM225 466q-2 -8 -8.5 -13.5t-14.5 -5.5
t-12.5 5.5t-2.5 13.5t8.5 13.5t14.5 5.5t12.5 -5.5t2.5 -13.5z" />
    <glyph glyph-name="section" unicode="&#xa7;" horiz-adv-x="244" 
d="M263 684q2 6 -6 12l-12 9l-11 -2q-26 -23 -46.5 -56.5t-26.5 -64.5q-6 -29 -5 -57t4 -56t4 -56t-5 -56q-8 -35 -28 -57t-43 -49q-2 23 -3.5 52.5t3.5 54.5t22.5 51.5t40.5 43.5l5 7q1 5 -7 11l-12 9l-10 -1q-26 -23 -46.5 -56.5t-27.5 -64.5q-6 -29 -5 -57t4 -56t4 -56.5
t-5 -56.5q-4 -20 -12 -33.5t-18 -25t-20.5 -23t-20.5 -26.5q-1 -5 8 -14t14 -9q9 0 23 17.5t27.5 40.5t23 44t11.5 29q6 28 5.5 56.5t-2.5 54.5q5 -2 8 -9.5t12 -7.5t23 17.5t27 40t23 44t12 29.5q6 29 4.5 57t-4 56t-4 55.5t4.5 56.5q5 26 22.5 52.5t40.5 43.5z" />
    <glyph glyph-name="dieresis" unicode="&#xa8;" horiz-adv-x="331" 
d="M286 619l-6 8h-44l-9 -8l-10 -44l7 -8h44l8 8zM114 620l-7 8h-44l-8 -8l-10 -45l6 -8h44l9 8z" />
    <glyph glyph-name="copyright" unicode="&#xa9;" horiz-adv-x="799" 
d="M749 352q15 73 2.5 138.5t-48.5 114.5t-93 77.5t-132 28.5t-145 -28.5t-128 -77t-98.5 -114t-56.5 -139.5t-2.5 -139t50.5 -114t95 -77t133 -28t144.5 28.5t126 77t96.5 113.5t56 139zM705 352q-14 -63 -49.5 -119.5t-85.5 -100t-110.5 -69t-124.5 -25.5t-114.5 25.5
t-83 68.5t-45 100t1.5 120q13 63 49.5 120t87.5 100.5t112.5 69t125.5 25.5t114 -25.5t81.5 -69t42.5 -100.5t-2 -120zM573 533l-4 8q-22 11 -54.5 15.5t-58.5 4.5q-53 0 -92.5 -14.5t-67.5 -41.5t-46 -66.5t-29 -88.5q-9 -45 -6 -84t20.5 -67.5t49.5 -45t81 -16.5
q30 0 67.5 7.5t68.5 21.5l6 8q1 3 3 11t3.5 16.5t1 14.5t-5.5 6q-1 0 -13 -6.5t-31 -14t-42.5 -14t-47.5 -6.5q-36 0 -60 14t-36.5 37.5t-14.5 54t5 63.5q8 36 21 67t34 53t51 34.5t71 12.5q18 0 35.5 -4t32.5 -9.5t26 -9.5t16 -4q4 0 6 3t3 6z" />
    <glyph glyph-name="ordfeminine" unicode="&#xaa;" horiz-adv-x="283" 
d="M248 636q9 44 -10 59t-59 15q-18 0 -42 -5.5t-42 -16.5l-5 -7q0 -2 -1 -7t-1.5 -9.5t0.5 -8t4 -3.5q2 0 9.5 4t18.5 9t25 9t28 4q25 0 36.5 -7.5t5.5 -35.5l-5 -22q-22 0 -48 -1t-49.5 -8t-42 -23.5t-25.5 -46.5q-7 -33 8.5 -54.5t50.5 -21.5q23 0 44 10.5t39 29.5
l-6 -29l7 -8h15l10 8zM206 429l-7 8h-161l-10 -8l-4 -18l7 -8h161l10 8zM203 584h-1q-4 -18 -11 -34.5t-18.5 -30t-27 -21.5t-36.5 -8q-18 0 -26 14t-5 31q4 16 14 26t23 15.5t27.5 7t27.5 1.5h16q9 0 17 -1z" />
    <glyph glyph-name="guillemotleft" unicode="&#xab;" horiz-adv-x="443" 
d="M426 521l-1 25l-7 6q-3 0 -18.5 -12t-38 -30t-49 -39.5t-50 -41t-41.5 -34.5t-23 -19l-3 -5q-1 -4 -1.5 -9t1.5 -8l138 -174l4 -3q4 0 7.5 4t6.5 9t5 10.5t4 7.5l-3 8l-123 150l188 147zM282 521v7t-0.5 10.5t-2 9.5t-5.5 4q-2 0 -17.5 -12t-38 -30t-49 -39.5t-50.5 -41
t-42 -34.5t-23 -19l-3 -5q-1 -4 -1.5 -9t1.5 -8q3 -4 14.5 -18.5t26.5 -34t32 -41t32 -40t25 -30.5t11 -12q4 0 7.5 3.5t6.5 8.5t5.5 10t4.5 8h-1l-2 8l-123 149l188 148z" />
    <glyph glyph-name="logicalnot" unicode="&#xac;" horiz-adv-x="441" 
d="M402 409l-6 7h-325l-10 -7l-4 -23l6 -8h291l-16 -76l6 -8h26l10 8z" />
    <glyph glyph-name="registered" unicode="&#xae;" horiz-adv-x="816" 
d="M766 354q16 74 1 139t-53.5 113.5t-98 76.5t-132.5 28q-74 0 -144.5 -28t-129.5 -77t-101 -114t-58 -138q-15 -74 -1 -139t52 -114.5t97 -78t133 -28.5t145.5 28.5t130.5 77.5t101 114.5t58 139.5zM722 354q-13 -63 -51 -120.5t-90.5 -101t-115 -69t-125.5 -25.5t-114 26
t-85 69.5t-47 100.5t0 120t51 119.5t90 100t114 69t125 25.5t114.5 -25.5t85.5 -69t47.5 -100t0.5 -119.5zM549 457q14 67 -15 97t-94 30q-6 0 -21.5 -0.5t-33 -2t-32 -4.5t-17.5 -9l-93 -437l7 -9h30l10 9l41 193h68q8 0 15.5 -12.5t14 -31.5t12.5 -42.5t10.5 -45t7.5 -39
t4 -25.5l7 -6h43q3 0 6.5 3t5.5 5q0 3 -2 7q-13 18 -18 43t-10 48q-2 9 -6.5 27.5t-10.5 37.5t-14.5 34t-18.5 17q19 5 36 16.5t31 27t23.5 33.5t13.5 36zM501 457q-8 -38 -36 -62.5t-66 -24.5h-58l35 166q27 3 55 3q40 0 59.5 -20t10.5 -62z" />
    <glyph glyph-name="macron" unicode="&#xaf;" horiz-adv-x="437" 
d="M390 587l-7 7h-321l-9 -7l-5 -24l6 -8h321l10 8z" />
    <glyph glyph-name="degree" unicode="&#xb0;" horiz-adv-x="257" 
d="M207 583q7 33 -11 55.5t-51 22.5t-60.5 -22.5t-34.5 -55.5q-7 -34 10.5 -56.5t51.5 -22.5t61 23t34 56zM173 583q-4 -19 -19.5 -33t-35.5 -14t-29.5 13.5t-5.5 33.5q5 20 20.5 33.5t35.5 13.5q19 0 28.5 -14.5t5.5 -32.5z" />
    <glyph glyph-name="plusminus" unicode="&#xb1;" horiz-adv-x="417" 
d="M368 409l-6 7h-128l28 128l-6 7h-24l-9 -7l-26 -128h-129l-9 -7l-5 -24l6 -8l129 1l-28 -128l5 -8h24l10 8l26 128l128 -1l9 8zM334 209l-5 8h-294l-10 -8l-5 -23l6 -8h294l9 8z" />
    <glyph glyph-name="twosuperior" unicode="&#xb2;" horiz-adv-x="635" 
d="M667 578q1 2 -1 4t-4 3h-26l-9 -7q-5 -26 -17 -48t-29.5 -39t-40.5 -26.5t-50 -9.5q-55 0 -75.5 35t-9.5 88l-5 7h-25q-7 -2 -9 -7q-15 -72 15 -114.5t102 -42.5q35 0 65 11.5t54 32.5t40.5 49.5t24.5 63.5zM256 498q5 25 -8.5 42.5t-38.5 17.5t-46.5 -17.5t-26.5 -42.5
t8.5 -42.5t38.5 -17.5t46.5 17.5t26.5 42.5zM420 605l-8 8q-3 0 -9.5 0.5t-13.5 0.5q-6 0 -11.5 -2t-6.5 -7q-9 -42 -17.5 -84.5t-16.5 -84.5q-39 -17 -86 -44t-89.5 -61.5t-74.5 -74.5t-41 -83q-11 -50 -4 -84.5t29.5 -55.5t58.5 -30t83 -9q16 0 36.5 2t41.5 5.5t41 10
t37 15.5l5 7q1 3 3 9.5t3 13t0.5 12t-4.5 5.5q-3 0 -18 -6.5t-37 -15t-49 -15t-52 -6.5q-37 0 -65.5 7.5t-45.5 24t-22.5 43.5t3.5 67q9 42 39.5 79t71 67t85.5 53t83 36l6 7zM529 -72q1 2 -1.5 4t-4.5 3h-26l-8 -7q-6 -26 -18 -48t-29.5 -39t-40 -26.5t-49.5 -9.5
q-55 0 -75.5 35t-9.5 88l-6 7h-25q-6 -2 -8 -7q-15 -72 15 -114.5t102 -42.5q35 0 65 11.5t54 32.5t40.5 49.5t24.5 63.5zM239 476q-2 -8 -8.5 -13.5t-14.5 -5.5t-12.5 5.5t-2.5 13.5t8.5 13.5t14.5 5.5t12.5 -5.5t2.5 -13.5z" />
    <glyph glyph-name="threesuperior" unicode="&#xb3;" horiz-adv-x="590" 
d="M572 388q5 25 -8.5 42.5t-38.5 17.5t-46.5 -17.5t-26.5 -42.5t9 -42.5t39 -17.5t46 17.5t26 42.5zM302 388q5 25 -8.5 42.5t-38.5 17.5t-46.5 -17.5t-26.5 -42.5t9 -42.5t39 -17.5t46 17.5t26 42.5zM487 527q11 51 6 86t-25 56.5t-54.5 30.5t-82.5 9q-36 0 -75 -6.5
t-75 -15.5l-8 -8q0 -2 -2 -8t-3 -12.5t-1 -11.5t3 -5q7 0 23.5 4.5t37.5 9.5t44.5 9.5t45.5 4.5q72 0 105.5 -33.5t17.5 -109.5q-8 -35 -35 -77.5t-66 -88t-85.5 -91.5t-92 -88t-87 -79t-70.5 -63l-6 -32l6 -8h354h23l9 7l32 147l-7 8h-23l-10 -9l-23 -111q-35 -2 -69 -3.5
t-68 -1.5q-41 0 -81 0.5t-81 0.5q30 30 70.5 67t85 78.5t88.5 85.5t81 88.5t63.5 87.5t34.5 82zM449 -80q0 5 -6 7h-26l-8 -7q-6 -26 -18 -48t-29.5 -39t-40 -26.5t-49.5 -9.5q-55 0 -75.5 35t-9.5 88l-6 7h-25q-2 -1 -5 -3t-3 -4q-15 -72 14.5 -114.5t101.5 -42.5
q35 0 65.5 11.5t54.5 32.5t40.5 49.5t24.5 63.5zM556 366q-2 -8 -8.5 -13.5t-14.5 -5.5t-12.5 5.5t-2.5 13.5t8.5 13.5t14.5 5.5t12.5 -5.5t2.5 -13.5zM286 366q-2 -8 -8.5 -13.5t-14.5 -5.5t-12.5 5.5t-2.5 13.5t8.5 13.5t14.5 5.5t12.5 -5.5t2.5 -13.5z" />
    <glyph glyph-name="acute" unicode="&#xb4;" horiz-adv-x="293" 
d="M265 764q1 6 -7 6h-35l-7 -3q-4 -5 -19.5 -21.5t-36 -39t-43.5 -48t-42.5 -47t-32.5 -36.5t-14 -16q0 -8 8 -8h18l5 3q5 5 22 21.5t39.5 39.5t48 48t46.5 47t35 37t15 17z" />
    <glyph glyph-name="mu" unicode="&#xb5;" horiz-adv-x="483" 
d="M501 466l-6 8h-27l-10 -8l-55 -258q-8 -36 -27 -69t-46.5 -57.5t-61.5 -39t-72 -14.5q-35 0 -56 17t-31 43.5t-10 58.5t6 61q14 65 29.5 129t29.5 129q2 8 -6 8h-27l-10 -8q-17 -70 -32.5 -139t-29.5 -139q-20 -91 -38 -180t-37 -180l6 -8q3 0 9 -0.5t12 -0.5t11 2t6 7
q12 56 20.5 112t19.5 112q3 -17 16 -28.5t31 -18.5t38 -10t35 -3q55 0 98 16t75 46t53 72t33 94z" />
    <glyph glyph-name="paragraph" unicode="&#xb6;" horiz-adv-x="429" 
d="M463 700l-6 8q-29 1 -57.5 2t-57.5 1q-99 0 -161.5 -43t-84.5 -147q-22 -102 21.5 -155.5t144.5 -53.5l5 -0.5t6 1.5q0 1 -1 1v0l-86 -406l6 -8h25l10 8l162 764h25l-162 -764l6 -8h27l10 8zM348 673l-68 -320l-3 -3q2 2 -1.5 0.5t-5.5 -1.5q-80 0 -114 46t-17 126
q17 83 67 118t128 35q4 0 7 -0.5t7 -0.5z" />
    <glyph glyph-name="periodcentered" unicode="&#xb7;" horiz-adv-x="163" 
d="M118 440l-7 8h-46l-10 -8l-10 -48l7 -8h46l10 8z" />
    <glyph glyph-name="periodcentered" unicode="&#x2219;" horiz-adv-x="163" 
d="M118 440l-7 8h-46l-10 -8l-10 -48l7 -8h46l10 8z" />
    <glyph glyph-name="cedilla" unicode="&#xb8;" horiz-adv-x="269" 
d="M212 -115q3 13 -1.5 24t-13 19t-19.5 14t-22 9h2l-35 12q1 7 6 15t10.5 15.5t10 12.5t4.5 7q2 7 -6.5 8t-13.5 1l-8 -4q-11 -13 -23.5 -31.5t-16.5 -34.5q-2 -7 2.5 -12.5t11.5 -9.5t15 -7t13 -5l-2 1q6 -2 13.5 -5t14 -7.5t10.5 -10.5t3 -13q-5 -20 -22.5 -27t-34.5 -7
q-14 0 -24 3.5t-17.5 8t-13 8t-9.5 3.5q-2 0 -4.5 -3t-2.5 -5l-6 -28l3 -7q14 -8 32.5 -12t35.5 -4t34.5 4t32.5 12.5t26 22t15 33.5z" />
    <glyph glyph-name="onesuperior" unicode="&#xb9;" 
 />
    <glyph glyph-name="ordmasculine" unicode="&#xba;" horiz-adv-x="332" 
d="M289 588q11 53 -13 88t-78 35q-61 0 -95 -33.5t-47 -91.5q-11 -55 9.5 -91t78.5 -36q27 0 51 10.5t43 28.5t32 41t19 49zM231 429l-7 8h-169l-9 -8l-4 -18l6 -8h169l10 8zM248 588q-4 -17 -12.5 -34t-21 -31.5t-28.5 -23.5t-35 -9q-20 0 -33.5 8t-21 21.5t-9.5 31t2 35.5
t13 35t22.5 30t30.5 21t36 8q17 0 29.5 -8.5t19.5 -22t9 -29.5t-1 -32z" />
    <glyph glyph-name="guillemotright" unicode="&#xbb;" horiz-adv-x="435" 
d="M386 371l-2 5l-139 173l-5 3q-8 -1 -13.5 -13t-9.5 -18l3 -8q31 -37 62 -73.5t62 -74.5l-189 -149l-4 -8q2 -8 2 -18t8 -13q2 0 17.5 12t38 30.5t49 40t50.5 41.5t42 34.5t23 18.5q0 2 1.5 3t1.5 3zM251 371l-1 5l-139 173l-5 3q-8 -1 -13.5 -13t-9.5 -18l3 -8l125 -148
l-190 -149l-3 -9l4 -24l6 -5q2 0 17.5 12t38 30t49 40t50 41.5t41.5 34t23 18.5q0 2 1.5 3t1.5 3h-1z" />
    <glyph glyph-name="onequarter" unicode="&#xbc;" horiz-adv-x="595" 
d="M621 620q1 2 -1 4t-4 3h-26l-9 -7q-5 -26 -17 -48t-29.5 -39t-40.5 -26.5t-50 -9.5q-55 0 -75.5 35t-9.5 88l-5 7h-25q-7 -2 -9 -7q-15 -72 15 -114.5t102 -42.5q35 0 65.5 11.5t54.5 32.5t40.5 49.5t23.5 63.5zM435 752q4 6 -3 8h-26q-2 -2 -6 -3.5t-6 -4.5l-304 -505
q-11 -19 -23.5 -40.5t-23.5 -43.5t-19.5 -44.5t-12.5 -42.5q-5 -23 -2 -39t13 -25.5t26.5 -13.5t38.5 -4q9 0 21.5 1.5t26 4.5t26 8t20.5 12l17 29q3 5 -2 8q-2 0 -9.5 -4t-19.5 -9.5t-27 -9.5t-31 -4q-65 0 -52 64q4 18 12 38t18.5 40t21.5 39t21 36zM472 -80q2 5 -5 7h-26
l-9 -7q-5 -26 -17 -48t-29.5 -39t-40.5 -26.5t-50 -9.5q-55 0 -75.5 35t-9.5 88l-5 7h-25q-2 -1 -5 -3t-4 -4q-15 -72 15 -114.5t102 -42.5q35 0 65.5 11.5t54.5 32.5t40.5 49.5t23.5 63.5z" />
    <glyph glyph-name="onehalf" unicode="&#xbd;" horiz-adv-x="636" 
d="M662 620q1 2 -1 4t-4 3h-26l-9 -7q-5 -26 -17 -48t-29.5 -39t-40.5 -26.5t-50 -9.5q-55 0 -75.5 35t-9.5 88l-5 7h-25q-7 -2 -9 -7q-15 -72 15 -114.5t102 -42.5q35 0 65.5 11.5t54.5 32.5t40.5 49.5t23.5 63.5zM231 548q5 25 -8.5 42.5t-38.5 17.5t-46.5 -17.5
t-26.5 -42.5t8.5 -42.5t38.5 -17.5t46.5 17.5t26.5 42.5zM476 752q4 6 -3 8h-26q-2 -2 -6 -3.5t-6 -4.5l-304 -505q-11 -19 -23.5 -40.5t-23.5 -43.5t-19.5 -44.5t-12.5 -42.5q-5 -23 -2 -39t13 -25.5t26.5 -13.5t38.5 -4q9 0 21.5 1.5t26 4.5t26 8t20.5 12l17 29q3 5 -2 8
q-2 0 -9.5 -4t-19.5 -9.5t-27 -9.5t-31 -4q-65 0 -52 64q4 18 12 38t18.5 40t21.5 39t21 36zM513 -80q2 5 -5 7h-26l-9 -7q-5 -26 -17 -48t-29.5 -39t-40.5 -26.5t-50 -9.5q-55 0 -75.5 35t-9.5 88l-5 7h-25q-2 -1 -5 -3t-4 -4q-15 -72 15 -114.5t102 -42.5q35 0 65.5 11.5
t54.5 32.5t40.5 49.5t23.5 63.5zM214 526q-2 -8 -8.5 -13.5t-14.5 -5.5t-12.5 5.5t-2.5 13.5t8.5 13.5t14.5 5.5t12.5 -5.5t2.5 -13.5z" />
    <glyph glyph-name="threequarters" unicode="&#xbe;" horiz-adv-x="498" 
d="M504 488q5 25 -9 42.5t-39 17.5t-46 -17.5t-26 -42.5t8.5 -42.5t38.5 -17.5t46.5 17.5t26.5 42.5zM234 488q5 25 -9 42.5t-39 17.5t-46 -17.5t-26 -42.5t8.5 -42.5t38.5 -17.5t46.5 17.5t26.5 42.5zM452 700q0 6 -7 6h-28l-7 -5l-401 -666l-5 -27l6 -8q186 1 372 0l6 3
l5 5l24 117l-6 8h-23l-10 -9l-17 -83q-78 -4 -155 -4h-153q6 10 26 43t49 81t64.5 106t71 117.5t69.5 115.5t60 100t42.5 71t16.5 29zM189 -201q1 5 -5.5 8.5t-10.5 5.5l-10 -2q-19 -22 -45 -22q-19 0 -24.5 13.5t-2.5 30.5q2 9 10 21.5t18.5 25.5t21 24t18.5 19v-1l4 5
l-11 6q-1 5 -4.5 6.5t-8.5 1.5l-9 -4q-10 -11 -24 -25t-27 -29t-23.5 -31t-13.5 -29q-7 -32 9 -54t49 -22q9 0 23.5 4t28 11t24.5 16.5t13 20.5zM487 466q-2 -8 -8.5 -13.5t-14.5 -5.5t-12.5 5.5t-2.5 13.5t8.5 13.5t14.5 5.5t12.5 -5.5t2.5 -13.5zM217 466
q-2 -8 -8.5 -13.5t-14.5 -5.5t-12.5 5.5t-2.5 13.5t8.5 13.5t14.5 5.5t12.5 -5.5t2.5 -13.5z" />
    <glyph glyph-name="questiondown" unicode="&#xbf;" horiz-adv-x="459" 
d="M403 704l-5 7h-36l-7 -7l-8 -36l5 -7h36l7 7zM386 605l-8 8q-3 0 -9.5 0.5t-13.5 0.5t-12 -2t-6 -7q-9 -42 -17.5 -84.5t-16.5 -84.5q-39 -17 -86 -44t-89.5 -61.5t-74.5 -74.5t-41 -83q-11 -50 -4 -84.5t29.5 -55.5t58.5 -30t83 -9q16 0 36.5 2t41.5 5.5t41 10t37 15.5
l5 7q1 3 3 9.5t3 13t0.5 12t-4.5 5.5q-3 0 -18 -6.5t-37 -15t-49 -15t-52 -6.5q-37 0 -65.5 7.5t-45.5 24t-22.5 43.5t3.5 67q9 42 39 79t70.5 67t86 53t83.5 36l6 7z" />
    <glyph glyph-name="Agrave" unicode="&#xc0;" horiz-adv-x="649" 
d="M453 728q0 1 -5 17t-12.5 39.5t-16.5 51t-17.5 52t-14.5 42.5t-8 23l-6 4h-35q-8 0 -10 -8q0 -1 6 -17t15.5 -39.5t21 -51t22 -52t18 -42.5t9.5 -23l7 -3q3 0 13.5 -0.5t12.5 7.5zM499 6q0 3 -3 27.5t-8.5 61t-11.5 79t-12 81t-11 68.5t-6 40l-46 338l-7 5h-38l-8 -5
q-14 -25 -38.5 -68t-55 -96.5t-65 -113.5t-68.5 -119t-65 -112.5t-54.5 -94.5t-37.5 -66l-14 -25q-1 -3 2 -4.5t5 -1.5h28l9 5q40 69 78.5 136.5t77.5 136.5h264l40 -273l7 -5q2 0 8 -0.5t12.5 0t11.5 2t6 4.5zM411 317h-239l193 335z" />
    <glyph glyph-name="Aacute" unicode="&#xc1;" horiz-adv-x="649" 
d="M551 942q2 8 -6 8h-35l-8 -3q-4 -5 -19.5 -21.5t-36 -39t-43.5 -48t-42.5 -47t-32.5 -36t-13 -16.5q-2 -8 7 -8h18l7 3l21 21t39.5 40t47.5 48l46.5 46.5t35.5 36.5t14 16zM499 6q1 3 -2 27.5t-8.5 61t-12 79t-12 81t-10.5 68.5t-6 40l-46 338l-7 5h-38l-8 -5
q-14 -25 -38.5 -68t-55 -96.5t-65 -113.5t-68.5 -119t-65 -112.5t-54.5 -94.5t-38 -66l-14.5 -25q-1 -3 2.5 -4.5t5.5 -1.5h28l9 5l156 273h264l40 -273l7 -5q2 0 7.5 -0.5t12 0t11.5 2t6 4.5zM411 317h-239l194 335z" />
    <glyph glyph-name="Acircumflex" unicode="&#xc2;" horiz-adv-x="649" 
d="M602 723q0 2 -9 14.5t-23.5 31t-31.5 40t-32.5 40.5t-27 33.5t-14.5 18.5q-2 2 -6 2h-52l-22.5 -18t-42 -33.5t-51.5 -41.5t-50 -40.5t-38 -31t-15 -13.5q-2 -9 6 -9h28q51 41 102.5 80t103.5 79l138 -159q7 0 19.5 -0.5t17.5 7.5zM504 6q1 3 -2 27.5t-8.5 61t-12 79
t-12 81t-10.5 68.5t-6 40l-46 338l-7 5h-38l-8 -5q-14 -25 -38.5 -68t-55 -96.5t-65 -113.5t-68.5 -119t-65 -112.5t-54.5 -94.5t-38 -66l-14.5 -25q-1 -3 2.5 -4.5t5.5 -1.5h28l9 5l156 273h264l40 -273l7 -5q2 0 7.5 -0.5t12 0t11.5 2t6 4.5zM416 317h-239l194 335z" />
    <glyph glyph-name="Atilde" unicode="&#xc3;" horiz-adv-x="649" 
d="M623 810l-8 18l-5 4q-2 0 -9.5 -7t-18.5 -15t-26.5 -15t-34.5 -7q-22 0 -42 7.5t-39.5 16t-40 16t-43.5 7.5q-29 0 -60.5 -17.5t-54.5 -38.5l-2 -10q2 -5 5.5 -12t10.5 -7l8.5 7.5t22 16.5t30 16.5t32.5 7.5q22 0 42 -7t40 -15.5t40 -15.5t43 -7q26 0 56 14t52 34zM512 6
q0 3 -3 27.5t-8.5 61t-11.5 79t-12 81t-11 68.5t-6 40l-46 338l-7 5h-38l-8 -5q-14 -25 -38.5 -68t-55 -96.5t-65 -113.5t-68.5 -119t-65 -112.5t-54.5 -94.5t-37.5 -66l-14 -25q-1 -3 2 -4.5t5 -1.5h28l9 5q40 69 78.5 136.5t77.5 136.5h264l40 -273l7 -5q2 0 8 -0.5
t12.5 0t11.5 2t6 4.5zM424 317h-239l193 335z" />
    <glyph glyph-name="Adieresis" unicode="&#xc4;" horiz-adv-x="649" 
d="M528 792l-7 8h-43l-9 -8l-9 -44l6 -8h43l10 8zM355 793l-6 8h-43l-9 -8l-9 -45l6 -8h43l9 8zM515 6q0 3 -3 27.5t-8 61t-11.5 79t-12 81t-10.5 68.5t-6 40l-46 338l-7 5h-38l-8 -5q-14 -25 -39 -68t-55.5 -96.5t-65 -113.5t-68 -119t-64.5 -112.5t-55 -94.5t-38 -66
l-14 -25q-1 -3 2.5 -4.5t5.5 -1.5h28l9 5l156 273h264l40 -273l7 -5q2 0 7.5 -0.5t12 0t11.5 2t6 4.5zM427 317h-239l193 335z" />
    <glyph glyph-name="Aring" unicode="&#xc5;" horiz-adv-x="649" 
d="M513 6q0 3 -3 27.5t-8 61t-11.5 79t-12.5 81t-10.5 68.5t-5.5 40l-44 321q21 8 35.5 27t18.5 39q7 30 -10 50.5t-47 20.5q-29 0 -54 -20.5t-32 -50.5q-5 -20 1.5 -38.5t23.5 -27.5q-14 -26 -38.5 -68.5t-54.5 -94.5t-64 -110.5t-66.5 -115.5t-63 -109t-53 -91.5
t-36.5 -63.5t-14 -25q-1 -3 2.5 -4.5t5.5 -1.5h28l9 5q39 69 77.5 136.5t78.5 136.5h264l40 -273l7 -5q2 0 7.5 -0.5t12 0t11.5 2t6 4.5zM441 750h-1q-4 -18 -17 -30t-32 -12q-18 0 -26.5 12.5t-4.5 29.5t18 29.5t32 12.5q17 0 26 -12.5t5 -29.5zM426 317h-240l193 335z" />
    <glyph glyph-name="AE" unicode="&#xc6;" horiz-adv-x="790" 
d="M801 698l-6 8h-348l-8 -5q-7 -10 -30 -45t-56.5 -85t-74.5 -111t-83 -123.5t-81 -121.5t-69.5 -105t-49.5 -74.5t-19 -30.5q0 -5 7 -5h29l8 5l229 347h157l-70 -344l5 -8q157 0 315 -3l9 8q1 3 3 9.5t3 12.5t0 10.5t-6 4.5q-70 0 -140 -2t-140 -2l64 314h149h24t25 -1
q4 -1 7.5 -1.5t3.5 -1.5q9 0 11 8l5 25l-6 8h-211q15 70 29 139.5t28 139.5h276zM471 668q-14 -70 -28 -139.5t-29 -139.5h-141q46 70 92.5 139.5t91.5 139.5h14z" />
    <glyph glyph-name="Ccedilla" unicode="&#xc7;" horiz-adv-x="667" 
d="M687 673l-3 6q-46 20 -97 26t-104 6q-176 0 -276 -90.5t-136 -260.5q-15 -72 -12.5 -135t27.5 -111t73.5 -79t123.5 -38q-8 -11 -14.5 -22t-9.5 -23q-2 -7 2.5 -12.5t11.5 -9.5t14.5 -7l12.5 -5l-1 1l12.5 -5t14 -7.5t10 -10.5t2.5 -13q-4 -20 -21 -27t-34 -7
q-14 0 -24.5 3.5t-18 8t-12.5 8t-8 3.5q-7 0 -9 -8l-6 -28l3 -7q14 -8 32.5 -12t35.5 -4t34.5 4t32.5 12.5t26 22t15 33.5q3 17 -1.5 26.5t-13 16t-19.5 11.5t-20 12h1l-35 12q2 8 7 16l10 16q27 -1 59.5 1t65.5 7.5t65 13.5t60 20l7 7q0 2 1.5 7.5t2.5 11.5t0.5 10.5
t-3.5 4.5t-5 -1q-60 -17 -113.5 -31.5t-113.5 -14.5q-74 0 -124 25t-77 69.5t-32.5 104.5t9.5 130q16 74 45 132.5t73.5 99t104.5 61.5t138 21q32 0 55.5 -2.5t44.5 -8t42.5 -12.5t48.5 -16q2 -1 3 -0.5t3 0.5q6 0 8 7z" />
    <glyph glyph-name="Egrave" unicode="&#xc8;" horiz-adv-x="434" 
d="M308 731q0 1 -5 17t-12.5 39.5t-16.5 51t-17 52t-14 43t-8 23.5l-7 4h-35q-8 0 -10 -8q0 -1 6 -17t15.5 -39.5t21 -51t22 -52t18 -42.5t9.5 -23l6 -4q5 0 15 -0.5t12 7.5zM418 698l-6 8h-306l-9 -8q-72 -345 -147 -690l6 -8q80 0 158.5 -0.5t158.5 -2.5l9 8q1 4 3 10.5
t3 13t0 11t-6 4.5q-34 0 -69 -2.5t-69 -2.5h-69q-19 0 -37.5 0.5t-37.5 0.5l65 307h145q29 0 57 -2t57 -2q9 0 11 8l6 27l-7 8h-261l60 281h145q32 0 62 -2t62 -2q8 0 10 8z" />
    <glyph glyph-name="Eacute" unicode="&#xc9;" horiz-adv-x="434" 
d="M429 942q2 7 -6 7h-36l-6 -3q-4 -5 -19.5 -21.5t-36.5 -39t-44 -48t-42.5 -47t-32.5 -36.5t-14 -16q-2 -8 8 -8h17l6 3q5 5 22 21.5t39.5 39.5t48 48t46.5 47t35 36.5t15 16.5zM419 698l-5 8h-306l-10 -8q-72 -345 -147 -690l6 -8q80 0 158.5 -0.5t158.5 -2.5l10 8
q1 4 3 10.5t2.5 13t-0.5 11t-6 4.5q-34 0 -68.5 -2.5t-68.5 -2.5h-69q-19 0 -38 0.5t-38 0.5l65 307h145q21 0 42 -2t42 -2q9 0 11 8l6 27l-6 8h-231l59 281h145q32 0 62 -2t62 -2q8 0 10 8z" />
    <glyph glyph-name="Ecircumflex" unicode="&#xca;" horiz-adv-x="515" 
d="M523 723q0 2 -9 14.5t-23 31t-31.5 39.5t-32.5 40.5t-27 33.5t-15 18q-2 2 -6 2h-51l-217 -173l-3 -6q-2 -7 8 -7h27l205 158l138 -158q8 0 20 -0.5t17 7.5zM475 698l-7 8h-306l-9 -8q-36 -174 -72.5 -345t-73.5 -345l5 -8q79 0 158.5 -0.5t159.5 -2.5l9 8q1 4 3 10.5
t3 13t0 11t-7 4.5q-34 0 -68.5 -2.5t-69.5 -2.5h-68q-19 0 -37.5 0.5t-38.5 0.5l65 307h145q29 0 57.5 -2t57.5 -2q8 0 10 8l6 27l-6 8h-261l59 281h145q31 0 61.5 -2t62.5 -2q3 0 6.5 2t4.5 6z" />
    <glyph glyph-name="Edieresis" unicode="&#xcb;" horiz-adv-x="434" 
d="M401 793l-7 8h-43l-9 -8l-10 -44l7 -8h43l9 8zM229 794l-6 8h-43l-10 -8l-10 -45l7 -8h43l9 8zM434 698l-5 8h-306l-10 -8q-35 -174 -71.5 -345t-74.5 -345l6 -8q80 0 158.5 -0.5t157.5 -2.5l10 8q1 4 3 10.5t2.5 13t-0.5 11t-6 4.5q-34 0 -68.5 -2.5t-68.5 -2.5h-69
q-19 0 -37.5 0.5t-37.5 0.5l65 307h145q29 0 57 -2t57 -2q9 0 11 8l5 27l-6 8h-261l60 281h145q32 0 62 -2t62 -2q8 0 10 8z" />
    <glyph glyph-name="Igrave" unicode="&#xcc;" horiz-adv-x="272" 
d="M274 720q0 1 -5 17t-12.5 39.5t-16.5 51t-17 52t-14 42.5t-8 23l-6 4h-35q-2 0 -6 -1.5t-4 -4.5q-1 -2 5.5 -17.5t16 -39t21 -51t22 -52t18 -43t9.5 -23.5l6 -4q4 0 14 -0.5t12 7.5zM237 698l-7 8h-26l-9 -8l-147 -690l6 -8h26l10 8z" />
    <glyph glyph-name="Iacute" unicode="&#xcd;" horiz-adv-x="293" 
d="M340 923q2 7 -6 7h-35l-8 -3q-4 -5 -19.5 -21.5t-36.5 -39.5t-43.5 -48t-42 -46.5t-32.5 -36.5t-13 -16q-2 -8 6 -8h18l6 3q5 5 22 21.5t39.5 39l48 48l47 47t35.5 36.5t14 17zM219 698l-6 8h-27l-9 -8l-147 -690l6 -8h27l9 8z" />
    <glyph glyph-name="Icircumflex" unicode="&#xce;" horiz-adv-x="515" 
d="M523 722q0 2 -9 14.5t-23.5 31t-31.5 40t-32.5 40.5t-27 33.5t-14.5 18.5q-2 2 -5 2h-51l-217 -174l-3 -6q-2 -3 0.5 -5t5.5 -2h28q52 39 103 79l102 80l138 -159q8 0 20 -0.5t17 7.5zM333 698l-7 8h-27l-9 -8l-147 -690l6 -8h27l10 8z" />
    <glyph glyph-name="Idieresis" unicode="&#xcf;" horiz-adv-x="330" 
d="M362 779l-5 8h-43l-10 -8l-10 -44l7 -8h43l8 8zM190 780l-6 8h-43l-9 -8l-10 -45l6 -8h43l9 8zM254 698l-6 8h-27l-9 -8l-147 -690l6 -8h27l9 8z" />
    <glyph glyph-name="Eth" unicode="&#xd0;" horiz-adv-x="139" 
d="M110 472l-6 8h-23l-10 -9l-42 -196l6 -8h23l10 9z" />
    <glyph glyph-name="Ntilde" unicode="&#xd1;" horiz-adv-x="638" 
d="M625 819l-9 18l-5 4q-3 0 -11 -7t-21 -15t-30.5 -15t-38.5 -7q-25 0 -48 7.5t-46 16t-46.5 16t-49.5 7.5q-8 0 -28.5 -6t-42 -15t-39 -19.5t-19.5 -19.5q-2 -5 2.5 -11.5t7.5 -10.5l6 -3q2 0 12 7.5t25 16.5t33 16.5t36 7.5q25 0 48 -7t46 -15.5t46.5 -15.5t49.5 -7
q28 0 61.5 13.5t57.5 33.5zM647 698l-8 8h-28l-9 -8l-130 -627q-77 161 -158 317.5t-162 314.5l-6 3h-28l-9 -8l-147 -690l7 -8h26l10 8q32 158 65 313t66 313q79 -160 160.5 -316.5t162.5 -314.5l5 -3h26l10 8z" />
    <glyph glyph-name="Ograve" unicode="&#xd2;" horiz-adv-x="746" 
d="M491 738q0 1 -5 17t-12.5 39.5t-17 51t-18 52t-14.5 42.5t-8 23l-7 4h-35q-7 0 -9 -7q-1 -2 5 -18t15.5 -39.5t21 -51t22 -52t18.5 -42.5t10 -23l6 -4h18q8 0 10 8zM670 360q17 80 12 145t-34.5 110.5t-85.5 70.5t-140 25t-150 -25t-115.5 -70.5t-82.5 -110.5t-50 -145
q-17 -78 -11 -144.5t35.5 -116t84.5 -77.5t138 -28q81 0 147 29t117 78.5t85 116t50 142.5zM626 360h-1q-14 -65 -43 -124.5t-73 -105t-102 -72.5t-130 -27q-71 0 -118 27t-71.5 72.5t-29 105t9.5 124.5q15 69 43 126.5t70.5 99.5t100.5 65t133 23q74 0 122 -23t72.5 -65
t28 -99.5t-11.5 -126.5z" />
    <glyph glyph-name="Oacute" unicode="&#xd3;" horiz-adv-x="746" 
d="M590 941q2 8 -7 8h-35l-7 -3q-4 -5 -19.5 -21.5t-36 -39t-43.5 -48t-42 -47t-32 -36.5t-13 -16q-2 -8 7 -8h17l7 3q4 4 20.5 21t39 40t48 48t47 46.5t35.5 36.5t14 16zM672 360q17 80 12 145t-34.5 110.5t-85.5 70.5t-140 25t-150 -25t-115.5 -70.5t-82.5 -110.5
t-50 -145q-17 -78 -11 -144.5t35.5 -116t84.5 -77.5t138 -28q81 0 147 29t117 78.5t85 116t50 142.5zM628 360h-1q-14 -65 -43 -124.5t-73 -105t-102 -72.5t-130 -27q-71 0 -118 27t-71.5 72.5t-29 105t9.5 124.5q15 69 43 126.5t70.5 99.5t100.5 65t133 23q74 0 122 -23
t72.5 -65t28 -99.5t-11.5 -126.5z" />
    <glyph glyph-name="Ocircumflex" unicode="&#xd4;" horiz-adv-x="746" 
d="M646 724q0 2 -9 14.5t-23 31t-31 40t-32.5 40.5t-27 33.5t-15.5 18.5q-2 2 -5 2h-52l-216 -174l-4 -6q0 -7 7 -7h28q51 39 102 79t104 80l137 -159q8 0 20 -0.5t17 7.5zM677 360q17 80 12 145t-34.5 110.5t-85.5 70.5t-140 25t-150 -25t-115.5 -70.5t-82.5 -110.5
t-50 -145q-17 -78 -11.5 -144.5t35.5 -116t84.5 -77.5t137.5 -28q81 0 147.5 29t117 78.5t85 116t50.5 142.5zM633 360h-1q-14 -65 -43 -124.5t-73 -105t-102 -72.5t-130 -27q-71 0 -118 27t-71.5 72.5t-29 105t9.5 124.5q15 69 43 126.5t70.5 99.5t100.5 65t133 23
q74 0 122 -23t72.5 -65t28 -99.5t-11.5 -126.5z" />
    <glyph glyph-name="Otilde" unicode="&#xd5;" horiz-adv-x="746" 
d="M639 798q-2 4 -5 11.5t-7 9.5q-2 0 -9 -7t-19 -15t-27.5 -15t-33.5 -7q-22 0 -42 7.5t-40 16t-40.5 16t-43.5 7.5q-28 0 -60 -17.5t-54 -38.5l-2 -9q3 -5 6 -12.5t9 -7.5l8.5 7.5t22 16.5t30 16.5t32.5 7.5q22 0 42.5 -7t40.5 -15.5t40.5 -15.5t43.5 -7q26 0 55 14t50 34
zM686 360q17 80 12 145t-35 110.5t-86 70.5t-140 25t-150 -25t-115.5 -70.5t-82 -110.5t-49.5 -145q-17 -78 -11.5 -144.5t35.5 -116t84.5 -77.5t137.5 -28q81 0 147.5 29t117 78.5t85 116t50.5 142.5zM642 360h-1q-14 -65 -43 -124.5t-73 -105t-102 -72.5t-130 -27
q-71 0 -118 27t-71.5 72.5t-29 105t9.5 124.5q15 69 43 126.5t70.5 99.5t100.5 65t133 23q74 0 122 -23t72.5 -65t28 -99.5t-11.5 -126.5z" />
    <glyph glyph-name="Odieresis" unicode="&#xd6;" horiz-adv-x="746" 
d="M573 792l-6 8h-44l-10 -8l-9 -44l7 -8h44l9 8zM400 793l-6 8h-44l-9 -8l-9 -45l6 -8h44l9 8zM688 360q17 80 12 145t-34.5 110.5t-85.5 70.5t-140 25t-150 -25t-115.5 -70.5t-82.5 -110.5t-50 -145q-17 -78 -11.5 -144.5t35.5 -116t84.5 -77.5t137.5 -28q81 0 147.5 29
t117 78.5t85 116t50.5 142.5zM644 360h-1q-14 -65 -43 -124.5t-73 -105t-102 -72.5t-130 -27q-71 0 -118 27t-71.5 72.5t-29 105t9.5 124.5q15 69 43 126.5t70.5 99.5t100.5 65t133 23q74 0 122 -23t72.5 -65t28 -99.5t-11.5 -126.5z" />
    <glyph glyph-name="multiply" unicode="&#xd7;" 
 />
    <glyph glyph-name="Oslash" unicode="&#xd8;" horiz-adv-x="746" 
d="M713 699q1 3 -1.5 5t-5.5 2h-31l-6 -3l-39 -40q-17 12 -38.5 21t-45.5 15t-49 9t-47 3q-84 0 -150.5 -24.5t-116 -70.5t-82 -110.5t-49.5 -145.5q-7 -33 -10.5 -69t-0.5 -71.5t12.5 -68t27.5 -57.5q-4 -4 -16.5 -17t-26.5 -27.5t-25.5 -27t-11.5 -15.5q-2 -7 6 -7h32l7 3
l59 61q17 -16 39.5 -29t48.5 -22t53 -14t53 -5q81 0 147.5 28.5t117 78t84 116t50.5 143.5q6 31 9.5 71t0.5 80t-15 74.5t-36 54.5q3 3 12 11.5t18.5 18.5t17 18.5t8.5 10.5zM600 631h-1l-483 -501q-11 23 -18 51.5t-9.5 59t-0.5 61t8 58.5q15 69 43 127t70.5 99.5
t100.5 64.5t133 23q42 0 84 -9t73 -34zM654 360h-1q-14 -65 -43 -124.5t-72.5 -105t-101.5 -72.5t-130 -27q-24 0 -48.5 4t-47 12t-42 20.5t-32.5 30.5l490 508q16 -22 24.5 -52.5t11.5 -64t0.5 -67t-8.5 -62.5z" />
    <glyph glyph-name="Ugrave" unicode="&#xd9;" horiz-adv-x="624" 
d="M436 730q0 1 -4.5 17t-12 39.5t-17 51t-17.5 52t-14 43t-8 23.5l-6 4h-35q-9 0 -11 -8q0 -1 6 -17t15.5 -39.5t21 -51t22 -52t18 -42.5t9.5 -23l6 -4h18q7 0 9 7zM621 698l-6 8h-28l-10 -8l-5 -22q-23 -106 -45.5 -212t-54.5 -212q-14 -47 -36.5 -87t-54 -69.5
t-72.5 -46.5t-92 -17q-56 0 -90.5 15.5t-52.5 44t-21 69.5t3 92q14 111 38 222t47 223l-6 8h-28l-10 -8l-6 -28q-23 -105 -43.5 -209.5t-34.5 -209.5q-8 -62 -3.5 -109.5t27 -80.5t64.5 -50t108 -17q61 0 110 19t87.5 53t65.5 81.5t43 104.5q30 106 54 212t47 212z" />
    <glyph glyph-name="Uacute" unicode="&#xda;" horiz-adv-x="624" 
d="M532 943q2 8 -6 8h-35l-8 -3q-4 -5 -19.5 -21.5t-36 -39t-43.5 -48t-42.5 -47t-32.5 -36.5t-13 -16q-2 -8 6 -8h18l7 3l21 21l40 40l48 48l46.5 46.5t35.5 36.5t14 16zM622 698l-6 8h-28l-10 -8l-5 -22q-23 -106 -45.5 -212t-54.5 -212q-14 -47 -36.5 -87t-54 -69.5
t-72.5 -46.5t-92 -17q-56 0 -90.5 15.5t-52.5 44t-21 69.5t3 92q14 111 37.5 222t47.5 223l-6 8h-28l-10 -8l-6 -28q-23 -105 -43.5 -209.5t-34.5 -209.5q-8 -62 -3.5 -109.5t27 -80.5t64.5 -50t108 -17q61 0 110 19t87.5 53t65.5 81.5t43 104.5q30 106 54 212t47 212z" />
    <glyph glyph-name="Ucircumflex" unicode="&#xdb;" horiz-adv-x="624" 
d="M582 724q0 2 -9 14.5t-23.5 31t-31.5 39.5t-32.5 40.5t-27 33.5t-14.5 18q-4 2 -5 2h-52l-216 -173l-4 -6q-2 -7 6 -7h29q51 39 102 78.5t103 79.5l138 -158q8 0 20 -0.5t17 7.5zM627 698l-6 8h-28l-10 -8l-5 -22q-23 -106 -45.5 -212t-54.5 -212q-14 -47 -36.5 -87
t-54 -69.5t-72.5 -46.5t-92 -17q-56 0 -90.5 15.5t-52.5 44t-21 69.5t3 92q14 111 38 222t47 223l-6 8h-28l-10 -8l-6 -28q-22 -105 -43 -209.5t-35 -209.5q-8 -62 -3.5 -109.5t27 -80.5t64.5 -50t108 -17q61 0 110 19t87.5 53t65.5 81.5t43 104.5q30 106 54 212t47 212z
" />
    <glyph glyph-name="Udieresis" unicode="&#xdc;" horiz-adv-x="624" 
d="M510 792l-5 8h-43l-10 -8l-9 -44l6 -8h43l9 8zM338 793l-6 8h-43l-9 -8l-9 -45l5 -8h43l10 8zM638 698l-6 8h-28l-10 -8l-5 -22q-23 -106 -45.5 -212t-54.5 -212q-14 -47 -36.5 -87t-54 -69.5t-72.5 -46.5t-92 -17q-56 0 -90.5 15.5t-52.5 44t-21 69.5t3 92
q14 111 37.5 222t47.5 223l-6 8h-28l-10 -8l-6 -28q-23 -105 -43.5 -209.5t-34.5 -209.5q-8 -62 -3.5 -109.5t27 -80.5t64.5 -50t108 -17q61 0 110 19t87.5 53t65.5 81.5t43 104.5q30 106 54 212t47 212z" />
    <glyph glyph-name="Yacute" unicode="&#xdd;" 
 />
    <glyph glyph-name="Thorn" unicode="&#xde;" 
 />
    <glyph glyph-name="germandbls" unicode="&#xdf;" horiz-adv-x="454" 
d="M366 575q6 27 0.5 51.5t-19 43t-35.5 30t-49 11.5q-41 0 -70 -13.5t-49.5 -36.5t-33.5 -54t-20 -67l-113 -532l7 -8h27l10 8l113 532q5 24 13.5 48t23 43t35.5 31t50 12q18 0 32 -9t23.5 -23.5t13 -32t-0.5 -34.5q-5 -22 -21 -36.5t-35.5 -30t-37 -36.5t-24.5 -55
q-9 -41 -1.5 -65t23 -40t35 -28.5t34.5 -30t22 -44t-2 -70.5q-11 -47 -46 -77.5t-83 -30.5q-15 0 -28 4t-25.5 9t-24.5 9.5t-26 6.5l-9 -8l-6 -31l4 -8q24 -10 51.5 -14.5t56.5 -4.5q66 0 115 39t63 106q11 51 5 83.5t-20.5 53.5t-33.5 35t-35 28t-24.5 31.5t-2.5 46.5
q6 28 22.5 44.5t35.5 31t36 32.5t24 50z" />
    <glyph glyph-name="agrave" unicode="&#xe0;" horiz-adv-x="448" 
d="M340 558q0 1 -4.5 17t-12 39.5t-17 51t-17.5 52t-14.5 43t-7.5 23.5l-7 4h-35q-7 0 -9 -8q0 -1 6 -17t15.5 -39.5t21 -51t22 -52t18 -42.5t9.5 -23l6 -4q4 0 14 -0.5t12 7.5zM387 340q9 42 4 68.5t-22.5 42.5t-46 22t-66.5 6q-18 0 -39 -2.5t-42.5 -7.5t-42.5 -13
t-39 -18l-4 -7l-3 -9t-3 -13t-0.5 -12t4.5 -5q2 0 17 8t38 17.5t51 17.5t56 8q27 0 48 -5t34 -16.5t17 -31.5t-2 -50l-11 -54q-42 1 -95 0.5t-103 -14t-89 -44.5t-52 -91q-7 -32 -2 -58.5t20 -45t39.5 -29t56.5 -10.5q57 0 104 28t82 78l-19 -92l6 -8h24l10 8zM326 252h-1
q-2 -13 -5.5 -26t-7.5 -26q-9 -33 -27.5 -63.5t-44 -54.5t-57 -38t-67.5 -14q-22 0 -38 9t-26 23.5t-13 34t2 40.5q8 37 29 60t49.5 36t61 17t63.5 4h41t41 -2z" />
    <glyph glyph-name="aacute" unicode="&#xe1;" horiz-adv-x="448" 
d="M422 764q1 6 -7 6h-35l-7 -3q-4 -5 -19.5 -21.5t-36 -39t-43.5 -48t-42 -47t-32 -36.5t-13 -16q-2 -8 7 -8h17l7 3l21.5 21.5t39 39.5t47.5 48t46.5 47t35 37t14.5 17zM389 340q9 42 4 68.5t-22.5 42.5t-46 22t-66.5 6q-18 0 -39 -2.5t-42.5 -7.5t-42.5 -13t-39 -18
l-5 -7q0 -3 -2 -9t-3 -13t-0.5 -12t4.5 -5q2 0 17 8t38 17.5t51 17.5t56 8q27 0 48 -5t34 -16.5t17 -31.5t-2 -50l-11 -54q-42 1 -95 0.5t-103 -14t-89 -44.5t-52 -91q-7 -32 -2 -58.5t20 -45t39.5 -29t56.5 -10.5q57 0 104 28t82 78l-19 -92l6 -8h24l10 8zM328 252h-1
q-2 -13 -5.5 -26t-7.5 -26q-9 -33 -27.5 -63.5t-44 -54.5t-57 -38t-67.5 -14q-22 0 -38 9t-26 23.5t-13 34t2 40.5q8 37 29 60t49.5 36t61 17t63.5 4h41t41 -2z" />
    <glyph glyph-name="acircumflex" unicode="&#xe2;" horiz-adv-x="515" 
d="M506 560q0 2 -9 15t-23 31.5t-31 39.5t-32.5 40.5t-27 33.5t-14.5 18q-4 2 -6 2h-51l-217 -174l-3 -6q-3 -8 6 -8h27l206 160l138 -160q8 0 20 -1t17 9zM405 340q9 42 4 68.5t-22.5 42.5t-46 22t-65.5 6q-18 0 -39 -2.5t-42.5 -7.5t-42.5 -13t-38 -18l-4 -7l-3 -9t-3 -13
t-0.5 -12t4.5 -5q1 0 16 8t37.5 17.5t50.5 17.5t56 8q27 0 48 -5t34 -16.5t17 -31.5t-2 -50l-11 -54q-42 1 -95 0.5t-103 -14t-88.5 -44.5t-51.5 -91q-7 -32 -2 -58.5t20 -45t39 -29t56 -10.5q57 0 104.5 27.5t81.5 78.5l-19 -92l6 -8h25l9 8zM345 252q-4 -13 -7 -26l-6 -26
q-9 -33 -28 -64t-44.5 -54.5t-57 -37.5t-67.5 -14q-22 0 -38 9t-26 23.5t-13 34t2 40.5q8 37 29 60t49.5 35.5t61 17t62.5 4.5h41q21 0 42 -2z" />
    <glyph glyph-name="atilde" unicode="&#xe3;" horiz-adv-x="482" 
d="M500 657q-2 5 -4 13.5t-9 8.5q-2 0 -9 -7t-19 -15.5t-27 -15.5t-33 -7q-22 0 -42 7.5t-39.5 16t-40.5 16t-44 7.5q-28 0 -59 -16t-54 -37l-3 -11q2 -2 6 -11t5 -9q4 0 13 7.5t22 16.5t29 16.5t33 7.5q22 0 42.5 -7t40.5 -16t40.5 -16t43.5 -7q26 0 55 14t50 34zM398 340
q9 42 3.5 68.5t-22.5 42.5t-45.5 22t-66.5 6q-18 0 -39 -2.5t-42.5 -7.5t-42.5 -13t-38 -18l-4 -7q-1 -3 -2.5 -9t-2.5 -13t-0.5 -12t4.5 -5q1 0 16 8t37.5 17.5t50.5 17.5t56 8q27 0 48.5 -5t34.5 -16.5t17 -31.5t-2 -50l-12 -54q-41 1 -94.5 0.5t-103.5 -14t-89 -44.5
t-52 -91q-7 -32 -2 -58.5t20 -45t39.5 -29t56.5 -10.5q56 0 104 27.5t83 78.5l-20 -92l6 -8h25l8 8zM338 252h-1q-4 -13 -6.5 -26t-6.5 -26q-9 -33 -27.5 -64t-44 -54.5t-57 -37.5t-67.5 -14q-22 0 -38 9t-26 23.5t-13.5 34t1.5 40.5q8 37 29 60t49.5 35.5t61.5 17t63 4.5
h41t42 -2z" />
    <glyph glyph-name="adieresis" unicode="&#xe4;" horiz-adv-x="448" 
d="M407 619l-7 8h-43l-9 -8l-9 -44l6 -8h43l10 8zM236 620l-7 8h-44l-8 -8l-10 -45l6 -8h44l9 8zM404 340q9 42 4 68.5t-22.5 42.5t-46 22t-66.5 6q-18 0 -39 -2.5t-42.5 -7.5t-42.5 -13t-39 -18l-4 -7l-3 -9t-3 -13t-0.5 -12t4.5 -5q2 0 17 8t38 17.5t51 17.5t56 8
q27 0 48 -5t34 -16.5t17 -31.5t-2 -50l-11 -54q-42 1 -95 0.5t-103 -14t-89 -44.5t-52 -91q-7 -32 -2 -58.5t20 -45t39.5 -29t56.5 -10.5q57 0 104 28t82 78l-19 -92l6 -8h24l10 8zM343 252h-1q-2 -13 -5.5 -26t-7.5 -26q-9 -33 -27.5 -63.5t-44 -54.5t-57 -38t-67.5 -14
q-22 0 -38 9t-26 23.5t-13 34t2 40.5q8 37 29 60t49.5 36t61 17t63.5 4h41t41 -2z" />
    <glyph glyph-name="aring" unicode="&#xe5;" horiz-adv-x="448" 
d="M376 583q8 33 -10.5 55.5t-51.5 22.5q-16 0 -31.5 -6t-28.5 -16.5t-22.5 -25t-13.5 -30.5q-7 -34 11 -56.5t53 -22.5q33 0 60 23t34 56zM401 340q9 42 3.5 68.5t-23 42.5t-46 22t-66.5 6q-18 0 -39 -2.5t-42.5 -7.5t-42.5 -13t-39 -18l-4 -7q0 -3 -2 -9t-3 -13t-0.5 -12
t4.5 -5q2 0 17 8t38 17.5t51 17.5t56 8q27 0 48 -5t34 -16.5t17 -31.5t-2 -50l-12 -54q-28 1 -61 1t-68 -3t-69 -11.5t-62.5 -25.5t-49 -43.5t-28.5 -66.5q-14 -64 17.5 -103.5t95.5 -39.5q57 0 104.5 28t82.5 78l-20 -92l6 -8h24l10 8zM343 583h-1q-4 -20 -19 -33.5
t-36 -13.5q-20 0 -29.5 13.5t-5.5 33.5q5 20 20.5 33.5t35.5 13.5t30 -13.5t5 -33.5zM340 252q-4 -13 -7 -26t-7 -26q-10 -33 -28.5 -63.5t-44 -54.5t-56.5 -38t-67 -14q-22 0 -38 9t-26 23.5t-13 34t2 40.5q8 37 29 60t49 36t60.5 17t63.5 4h41t42 -2z" />
    <glyph glyph-name="ae" unicode="&#xe6;" horiz-adv-x="800" 
d="M762 293q9 42 3.5 76.5t-24.5 59.5t-50 38.5t-74 13.5q-54 0 -104.5 -23.5t-92.5 -68.5q-3 22 -15.5 39t-30 29t-39.5 18t-44 6q-39 0 -86.5 -14.5t-84.5 -37.5l-5 -6q0 -3 -1.5 -8t-2 -10t0 -9t4.5 -4q2 0 17.5 8.5t39 18t52.5 18t58 8.5q54 0 78.5 -24t12.5 -81
l-12 -54q-42 4 -94.5 3t-101.5 -15t-87 -46.5t-51 -91.5q-13 -63 16.5 -102.5t92.5 -39.5q64 0 121 36.5t87 98.5q11 -68 58.5 -101.5t118.5 -33.5q18 0 38.5 2.5t42 7t42.5 11.5t38 16l5 7q0 2 2 8t3 12.5t0.5 11.5t-4.5 5q-1 0 -16 -7t-38 -15.5t-50.5 -15.5t-54.5 -7
q-45 0 -75.5 15t-47.5 42t-21 63.5t5 78.5l5 22q88 -1 174 0t174 5l10 8q2 8 4 15zM719 291q-158 -6 -316 -6q10 32 31 61t49.5 51t61 35t64.5 13q35 0 58.5 -12t36.5 -33t16.5 -49t-1.5 -60zM354 252q-9 -39 -24.5 -79t-40 -71.5t-60 -51.5t-84.5 -20q-46 0 -65.5 31
t-10.5 75q8 37 29.5 60.5t50 36.5t61 17.5t62.5 4.5q43 0 82 -3z" />
    <glyph glyph-name="ccedilla" unicode="&#xe7;" horiz-adv-x="479" 
d="M477 450l-3 7q-29 12 -66 18t-71 6q-54 0 -98 -16.5t-77.5 -47.5t-56.5 -74t-34 -95q-11 -53 -10 -98.5t18 -79t52 -54t91 -22.5q-7 -10 -13 -20.5t-8 -21.5q-2 -7 2.5 -12.5t11 -9.5t14 -7l12.5 -5v1q5 -2 12 -5t13.5 -7.5t10.5 -10.5t3 -13q-5 -20 -21.5 -27t-33.5 -7
q-13 0 -24 3.5t-19 8t-13.5 8t-7.5 3.5q-6 0 -8 -8l-6 -28l1 -7q14 -8 33 -12t36 -4t34.5 4t32.5 12.5t26 22t15 33.5q3 14 -1.5 24.5t-13 19t-19.5 14t-22 8.5h1l-33 12q2 8 7 16l10 16q32 2 72 11t72 25l6 7q2 8 5.5 20.5t-4.5 16.5l-15.5 -7t-39 -15.5t-52.5 -15.5
t-57 -7q-48 0 -77.5 18t-44 48t-15.5 69.5t8 82.5q9 42 27.5 78.5t45.5 62.5t63 41t81 15q22 0 44.5 -5t41 -11.5t31.5 -11.5t17 -5q6 0 8 7z" />
    <glyph glyph-name="egrave" unicode="&#xe8;" horiz-adv-x="492" 
d="M366 558q0 1 -4.5 17t-12 39.5t-16.5 51t-17 52t-14.5 43t-7.5 23.5l-7 4h-35q-8 0 -10 -8q0 -1 6 -17t15.5 -39.5t21 -51t22 -52t18 -42.5t9.5 -23l6 -4q5 0 14.5 -0.5t11.5 7.5zM412 252q10 45 10.5 86t-13 73t-44 51t-82.5 19t-95.5 -17t-77 -47t-56.5 -72t-33 -92
q-12 -58 -11.5 -105.5t18.5 -81.5t55.5 -53t99.5 -19q18 0 38.5 2.5t41.5 7t41.5 11.5t37.5 16l6 7q0 3 2 9t3 12t0.5 11t-4.5 5q-2 0 -17 -7t-37.5 -15.5t-50 -15.5t-54.5 -7q-47 0 -76.5 16t-44.5 43.5t-17 65t7 81.5q86 0 171.5 2.5t172.5 5.5zM377 281
q-72 -5 -141.5 -6.5t-139.5 -1.5h-29q9 37 28 69t46.5 54.5t61.5 35.5t72 13q34 0 56.5 -14t34.5 -37.5t14.5 -53t-3.5 -59.5z" />
    <glyph glyph-name="eacute" unicode="&#xe9;" horiz-adv-x="492" 
d="M455 764q1 6 -7 6h-35l-7 -3q-4 -5 -19.5 -21.5t-36.5 -39t-43.5 -48t-42 -47t-32.5 -36t-13 -16.5q-2 -8 6 -8h18l7 3q5 5 22 21.5t39.5 39.5t47.5 48t46 47t35 37t15 17zM414 252q10 45 10.5 86t-13 73t-44 51t-82.5 19t-95.5 -17t-77 -47t-56.5 -72t-33 -92
q-12 -58 -11.5 -105.5t18.5 -81.5t55.5 -53t99.5 -19q18 0 38.5 2.5t41.5 7t41.5 11.5t37.5 16l6 7q0 3 2 9t3 12t0.5 11t-4.5 5q-2 0 -17 -7t-37.5 -15.5t-50 -15.5t-54.5 -7q-47 0 -76.5 16t-44.5 43.5t-17 65t7 81.5q86 0 171.5 2.5t172.5 5.5zM379 281
q-72 -5 -141.5 -6.5t-139.5 -1.5h-29q9 37 28 69t46.5 54.5t61.5 35.5t72 13q34 0 56.5 -14t34.5 -37.5t14.5 -53t-3.5 -59.5z" />
    <glyph glyph-name="ecircumflex" unicode="&#xea;" horiz-adv-x="524" 
d="M515 560q0 2 -9 15t-23 31.5t-31 39.5t-32.5 40.5t-27 33.5t-14.5 18q-4 2 -6 2h-52l-216 -174l-4 -6q-2 -8 6 -8h28l206 160l137 -160q8 0 20.5 -1t17.5 9zM417 252q9 45 9.5 86t-13 73t-44 51t-82.5 19t-95.5 -17t-76.5 -47t-56 -72t-33 -92q-12 -57 -11.5 -105
t18.5 -82t55 -53t99 -19q35 0 80 9t80 28l5 7q1 3 2.5 9t2.5 12t0.5 11t-4.5 5q-1 0 -16.5 -7t-38.5 -15.5t-50.5 -15.5t-53.5 -7q-47 0 -76.5 16t-44.5 44t-16.5 65.5t6.5 80.5q86 0 171.5 2.5t172.5 5.5zM382 281q-72 -5 -142 -6.5t-140 -1.5h-29q9 37 28.5 69t46.5 54.5
t61 35.5t73 13q35 0 57 -14t33.5 -37.5t13.5 -53t-2 -59.5z" />
    <glyph glyph-name="edieresis" unicode="&#xeb;" horiz-adv-x="492" 
d="M429 619l-6 8h-43l-9 -8l-9 -44l5 -8h43l10 8zM259 620l-7 8h-44l-8 -8l-10 -45l5 -8h44l10 8zM429 252q10 45 10.5 86t-13 73t-44 51t-82.5 19t-95.5 -17t-77 -47t-56.5 -72t-33 -92q-12 -58 -11.5 -105.5t18.5 -81.5t55.5 -53t99.5 -19q18 0 38.5 2.5t41.5 7t41.5 11.5
t37.5 16l6 7q0 3 2 9t3 12t0.5 11t-4.5 5q-2 0 -17 -7t-37.5 -15.5t-50 -15.5t-54.5 -7q-47 0 -76.5 16t-44.5 43.5t-17 65t7 81.5q86 0 171.5 2.5t172.5 5.5zM394 281q-72 -5 -141.5 -6.5t-139.5 -1.5h-29q9 37 28 69t46.5 54.5t61.5 35.5t72 13q34 0 56.5 -14t34.5 -37.5
t14.5 -53t-3.5 -59.5z" />
    <glyph glyph-name="igrave" unicode="&#xec;" horiz-adv-x="272" 
d="M257 558q0 1 -4.5 17t-12 39.5t-17 51t-17.5 52t-14 43t-8 23.5l-6 4h-35q-9 0 -11 -8q0 -1 6 -17t15.5 -39.5t21 -51t22 -52t18 -42.5t9.5 -23l6 -4q5 0 15 -0.5t12 7.5zM183 466l-6 8h-26l-10 -8l-97 -458l6 -8h26l10 8z" />
    <glyph glyph-name="iacute" unicode="&#xed;" horiz-adv-x="293" 
d="M324 764q0 6 -7 6h-35l-8 -3q-4 -5 -19.5 -21.5t-36 -39t-43.5 -48t-42.5 -47t-32.5 -36.5t-13 -16q-2 -8 7 -8h18l6 3q5 5 22 21.5t39.5 39.5t48 48t46.5 47t35 37t15 17zM175 466l-6 8h-26l-10 -8l-97 -458l7 -8h26l9 8z" />
    <glyph glyph-name="icircumflex" unicode="&#xee;" horiz-adv-x="515" 
d="M505 560q0 2 -9 15t-23 31.5t-31 39.5t-32.5 40.5t-27.5 33.5t-15 18q-2 2 -5 2h-51l-217 -174l-4 -6q-2 -8 8 -8h27l206 160l138 -160q8 0 19.5 -1t16.5 9zM278 466l-6 8h-26l-10 -8l-97 -458l7 -8h26l9 8z" />
    <glyph glyph-name="idieresis" unicode="&#xef;" horiz-adv-x="331" 
d="M346 619l-6 8h-43l-10 -8l-10 -44l8 -8h43l8 8zM173 620l-6 8h-43l-9 -8l-10 -45l7 -8h43l8 8zM215 466l-7 8h-27l-9 -8l-97 -458l6 -8h27l10 8z" />
    <glyph glyph-name="eth" unicode="&#xf0;" horiz-adv-x="164" 
d="M119 50l-7 8h-47l-10 -8l-10 -48l7 -8h47l10 8z" />
    <glyph glyph-name="ntilde" unicode="&#xf1;" horiz-adv-x="494" 
d="M511 657q-2 5 -4 13.5t-8 8.5q-2 0 -9.5 -7t-19.5 -15.5t-27.5 -15.5t-33.5 -7q-22 0 -42 7.5t-39.5 16t-40.5 16t-44 7.5q-28 0 -59 -16t-54 -37l-2 -11l5.5 -11t5.5 -9q4 0 13 7.5t22 16.5t29 16.5t33 7.5q22 0 42.5 -7t40.5 -16t40 -16t43 -7q26 0 56 14t50 34z
M434 313q9 44 2 75.5t-27 51.5t-52.5 29.5t-74.5 9.5q-49 0 -96.5 -21.5t-84.5 -63.5l13 72l-7 8h-21l-9 -8l-98 -458l8 -8h25l9 8l67 314q6 26 27.5 48t49.5 38.5t58 25.5t53 9q30 0 55 -8t41.5 -24.5t22.5 -40.5t-1 -57l-65 -305l7 -8h25l8 8z" />
    <glyph glyph-name="ograve" unicode="&#xf2;" horiz-adv-x="543" 
d="M384 558q0 1 -4.5 17t-12 39.5t-17 51t-17.5 52t-14 43t-8 23.5l-7 4h-35q-7 0 -9 -8q0 -1 6 -17t15.5 -39.5t21 -51t22 -52t18 -42.5t9.5 -23l6 -4q4 0 14 -0.5t12 7.5zM461 239q12 55 9 100t-23.5 76.5t-58.5 48.5t-97 17q-117 0 -183.5 -65t-89.5 -177q-11 -53 -7 -98
t25 -77.5t59 -51t94 -18.5t101 18.5t79.5 51t57.5 77.5t34 98zM420 239h-1q-9 -42 -27.5 -80t-47 -66.5t-66 -45.5t-83.5 -17t-76.5 17t-46.5 45.5t-19 66.5t6 80q9 44 27.5 82t46.5 65.5t65.5 43t85.5 15.5t79 -15.5t46.5 -43.5t17.5 -65.5t-7 -81.5z" />
    <glyph glyph-name="oacute" unicode="&#xf3;" horiz-adv-x="543" 
d="M479 764q1 6 -7 6h-35l-7 -3q-4 -5 -19.5 -21.5t-36.5 -39t-43.5 -48t-42 -47t-32.5 -36t-13 -16.5q-2 -8 7 -8h18l7 3l21.5 21.5t39 39.5t47.5 48t46.5 47t35 37t14.5 17zM463 239q12 55 9 100t-23.5 76.5t-58.5 48.5t-97 17q-117 0 -183.5 -65t-89.5 -177
q-11 -53 -7 -98t25 -77.5t59 -51t94 -18.5t101 18.5t79.5 51t57.5 77.5t34 98zM422 239h-1q-9 -42 -27.5 -80t-47 -66.5t-66 -45.5t-83.5 -17t-76.5 17t-46.5 45.5t-19 66.5t6 80q9 44 27.5 82t46.5 65.5t65.5 43t85.5 15.5t78.5 -15.5t46.5 -43.5t18 -65.5t-7 -81.5z" />
    <glyph glyph-name="ocircumflex" unicode="&#xf4;" horiz-adv-x="543" 
d="M507 560q0 2 -9 15t-23 31.5t-31 39.5t-32.5 40.5t-27 33.5t-14.5 18q-4 2 -6 2h-52l-217 -174l-3 -6q-3 -8 6 -8h28q52 41 103.5 80.5t102.5 79.5l137 -160q8 0 20.5 -1t17.5 9zM466 239q12 55 9 100t-23 76.5t-58 48.5t-97 17q-117 0 -183.5 -65t-89.5 -177
q-11 -53 -7 -98t25 -77.5t58.5 -51t93.5 -18.5t101 18.5t79.5 51t57.5 77.5t34 98zM425 239q-9 -42 -28 -80t-47 -66.5t-65.5 -45.5t-83.5 -17t-76.5 17t-46.5 45.5t-19 66.5t6 80q9 44 27.5 82t46.5 65.5t65.5 43t85.5 15.5t78.5 -15.5t46.5 -43.5t17.5 -65.5t-7.5 -81.5z
" />
    <glyph glyph-name="otilde" unicode="&#xf5;" horiz-adv-x="543" 
d="M525 657q-2 5 -4 13.5t-8 8.5q-2 0 -9.5 -7t-19.5 -15.5t-27.5 -15.5t-33.5 -7q-22 0 -42 7.5t-39.5 16t-40.5 16t-44 7.5q-28 0 -59.5 -16.5t-53.5 -36.5l-3 -12l10 -17l10 1q17 17 41.5 31t46.5 14t42.5 -7t41 -16t40.5 -16t43 -7q26 0 55.5 14t50.5 34zM472 239
q12 55 9 100t-23 76.5t-58 48.5t-97 17q-117 0 -183.5 -65t-90.5 -177q-11 -53 -7 -98t25 -77.5t59 -51t94 -18.5t101 18.5t79.5 51t57.5 77.5t34 98zM431 239h-1q-9 -42 -27.5 -80t-46.5 -66.5t-65.5 -45.5t-83.5 -17t-76.5 17t-47 45.5t-19.5 66.5t6 80q9 44 27.5 82
t46.5 65.5t66 43t86 15.5t78.5 -15.5t46.5 -43.5t17.5 -65.5t-7.5 -81.5z" />
    <glyph glyph-name="odieresis" unicode="&#xf6;" horiz-adv-x="543" 
d="M448 619l-6 8h-43l-10 -8l-9 -44l7 -8h43l9 8zM276 620l-6 8h-44l-9 -8l-10 -45l7 -8h44l8 8zM478 239q12 55 9 100t-23.5 76.5t-58.5 48.5t-97 17q-117 0 -183.5 -65t-89.5 -177q-11 -53 -7 -98t25 -77.5t59 -51t94 -18.5t101 18.5t79.5 51t57.5 77.5t34 98zM437 239h-1
q-9 -42 -27.5 -80t-47 -66.5t-66 -45.5t-83.5 -17t-76.5 17t-46.5 45.5t-19 66.5t6 80q9 44 27.5 82t46.5 65.5t65.5 43t85.5 15.5t79 -15.5t46.5 -43.5t17.5 -65.5t-7 -81.5z" />
    <glyph glyph-name="divide" unicode="&#xf7;" horiz-adv-x="409" 
d="M265 510l-6 8h-47l-10 -8l-10 -48l7 -7h47l9 7zM361 375l-6 8h-294l-9 -8l-5 -24l6 -8h294l9 8zM212 267l-5 8h-47l-10 -8l-10 -48l7 -8h47l8 8z" />
    <glyph glyph-name="oslash" unicode="&#xf8;" horiz-adv-x="543" 
d="M517 470q2 7 -6 7h-26l-7 -3l-27 -28q-23 17 -59 26t-68 9q-117 0 -183.5 -65t-90.5 -177q-5 -21 -7 -46t0 -49.5t8.5 -46.5t20.5 -37l-10.5 -10.5t-16 -16.5t-15.5 -16.5t-7 -9.5q-2 -7 6 -7h26l6 3q7 8 16 16t17 16q24 -18 59 -29.5t68 -11.5q56 0 101.5 18.5
t79.5 51.5t57 77.5t34 97.5q4 21 7 47t1.5 51.5t-8 48.5t-20.5 38q3 3 10 9.5t14.5 13.5t13.5 13.5t6 9.5zM420 414h-1l-316 -322q-13 30 -16.5 71t4.5 76q9 44 27.5 82t46.5 65.5t66 43t86 15.5q28 0 55.5 -7t47.5 -24zM452 239h-1q-9 -42 -27.5 -80t-46.5 -66.5
t-65.5 -45.5t-83.5 -17q-28 0 -57.5 8t-46.5 28q80 81 158.5 162t158.5 162q15 -30 17 -72.5t-6 -78.5z" />
    <glyph glyph-name="ugrave" unicode="&#xf9;" horiz-adv-x="483" 
d="M359 558q0 1 -4.5 17t-12 39.5t-16.5 51t-17 52t-14.5 43t-7.5 23.5l-7 4h-35q-8 0 -10 -8q0 -1 6 -17t15.5 -39.5t21 -51t22 -52t18 -42.5t9.5 -23l6 -4q5 0 14.5 -0.5t11.5 7.5zM449 466l-6 8h-26l-9 -8q-14 -67 -29 -133t-29 -133q-7 -35 -27.5 -66t-49 -54
t-62.5 -36.5t-68 -13.5q-36 0 -57.5 13t-32 35.5t-11.5 51t6 60.5l62 276q0 6 -5 8h-26l-10 -8q-17 -69 -32 -138l-30 -138q-9 -41 -7 -77t17 -62.5t44.5 -41.5t74.5 -15q59 0 108.5 27.5t86.5 78.5l-18 -92l6 -8h23l10 8z" />
    <glyph glyph-name="uacute" unicode="&#xfa;" horiz-adv-x="483" 
d="M445 764q1 6 -7 6h-35l-7 -3q-4 -5 -19.5 -21.5t-36 -39t-43.5 -48t-42.5 -47t-32.5 -36.5t-13 -16q-2 -8 6 -8h18l7 3q5 5 22 21.5t39.5 39.5t47.5 48t46 47t35 37t15 17zM451 466l-6 8h-26l-9 -8q-14 -67 -29 -133t-29 -133q-7 -35 -27.5 -66t-49 -54t-62.5 -36.5
t-68 -13.5q-36 0 -58 13t-32.5 35.5t-11 51t6.5 60.5l62 276q0 6 -5 8h-26l-10 -8q-17 -69 -32 -138l-30 -138q-9 -41 -7 -77t17 -62.5t44.5 -41.5t74.5 -15q59 0 108.5 27.5t86.5 78.5l-18 -92l6 -8h23l10 8z" />
    <glyph glyph-name="ucircumflex" unicode="&#xfb;" horiz-adv-x="514" 
d="M505 560q0 2 -9 15t-23 31.5t-31 39.5t-32 40.5t-26.5 33.5t-14.5 18q-4 2 -6 2h-51l-217 -174l-3 -6q-3 -8 6 -8h27l206 160l137 -160q8 0 20 -1t17 9zM456 466l-6 8h-25l-10 -8q-14 -67 -28.5 -133t-28.5 -133q-8 -35 -28 -65.5t-48.5 -54t-62.5 -37t-68 -13.5
q-36 0 -57.5 13t-32 35.5t-11 51t5.5 60.5q3 12 8.5 35t12.5 50.5t14 57.5t13 56.5t10 47t4 29.5q0 8 -6 8h-26l-9 -8q-17 -69 -32 -138l-30 -138q-9 -41 -7 -77t17 -62.5t44 -41.5t75 -15q58 0 107.5 27.5t86.5 78.5l-17 -92l6 -8h22l10 8z" />
    <glyph glyph-name="udieresis" unicode="&#xfc;" horiz-adv-x="483" 
d="M417 619l-5 8h-43l-10 -8l-9 -44l6 -8h43l9 8zM247 620l-6 8h-44l-9 -8l-10 -45l6 -8h44l9 8zM466 466l-6 8h-26l-9 -8q-14 -67 -29 -133t-29 -133q-7 -35 -27.5 -66t-49 -54t-62.5 -36.5t-68 -13.5q-36 0 -57.5 13t-32 35.5t-11.5 51t6 60.5l62 276q0 6 -5 8h-26l-10 -8
q-17 -69 -32 -138l-30 -138q-9 -41 -7 -77t17 -62.5t44.5 -41.5t74.5 -15q59 0 108.5 27.5t86.5 78.5l-18 -92l6 -8h23l10 8z" />
    <glyph glyph-name="yacute" unicode="&#xfd;" 
 />
    <glyph glyph-name="thorn" unicode="&#xfe;" 
 />
    <glyph glyph-name="ydieresis" unicode="&#xff;" horiz-adv-x="546" 
d="M468 619l-6 8h-43l-10 -8l-9 -44l6 -8h43l10 8zM295 620l-5 8h-44l-10 -8l-9 -45l6 -8h44l9 8zM550 469q1 2 -2 3.5t-5 1.5h-31l-8 -5q-67 -104 -134.5 -206.5t-136.5 -206.5l-85 413l-6 5q-2 0 -8 0.5t-12.5 0t-11.5 -2t-6 -4.5q-1 -2 5.5 -34t16 -80t21.5 -104.5
t22.5 -107t18.5 -87.5t10 -46q-3 -5 -14.5 -21.5t-26 -38.5t-31 -46t-30.5 -45t-23.5 -35.5t-9.5 -16.5q-1 -3 2 -4t5 -1h30l8 4q6 10 28.5 43t54.5 81t71 106t79 117.5t77.5 116t66.5 100.5t47 71t18 29z" />
    <glyph glyph-name="OE" unicode="&#x152;" horiz-adv-x="1034" 
d="M1045 698l-6 8h-306l-10 -8l-27 -131q-12 41 -36 69t-56 44.5t-71.5 23.5t-83.5 7q-84 0 -150 -25t-115.5 -70.5t-82 -110.5t-49.5 -145q-17 -77 -11.5 -144t35 -116.5t84.5 -77.5t137 -28q90 0 171.5 41t139.5 122l-31 -149l6 -8q80 0 158.5 0.5t157.5 -3.5l10 8
q1 4 3 10t3 12t0 10.5t-6 6.5q-29 -2 -58 -3.5t-58 -1.5q-42 0 -83 0.5t-83 0.5l65 307h150h13t21.5 -0.5t21.5 -1.5t13 -2q9 0 11 8l5 27l-6 8h-221l60 281h145q32 0 62.5 -2t62.5 -2q8 0 10 8zM652 360q-14 -65 -43 -124.5t-72.5 -105t-101.5 -72.5t-130 -27
q-71 0 -118 27t-71.5 72.5t-29 105t9.5 124.5q15 69 42.5 126.5t70 99.5t100 65t132.5 23t122.5 -23t72 -65t28 -99.5t-11.5 -126.5z" />
    <glyph glyph-name="oe" unicode="&#x153;" horiz-adv-x="894" 
d="M847 252q9 44 10 85t-12.5 73t-43.5 51.5t-82 19.5q-64 0 -123 -28t-97 -89q-17 54 -66 85.5t-109 31.5q-117 0 -183.5 -65t-90.5 -177q-11 -53 -7 -98t25 -77.5t59 -51t94 -18.5q66 0 126 30.5t100 93.5q4 -33 19 -56.5t38 -38.5t53 -22t63 -7q35 0 78.5 10t78.5 27l6 7
q0 3 1.5 9t2.5 12t0.5 11t-4.5 5q-2 0 -16.5 -7t-36.5 -15.5t-49 -15.5t-54 -7q-48 0 -78 15.5t-45 43t-17 65.5t6 82q87 2 172 3t172 5zM812 281h-1q-77 0 -154.5 -4t-155.5 -4q8 37 28 68.5t48.5 54.5t63.5 36t72 13q36 0 58 -14t33 -36.5t12.5 -52.5t-4.5 -61zM453 239
h-1q-9 -42 -27.5 -80t-47 -66.5t-66 -45.5t-83.5 -17t-76.5 16.5t-47 45t-19.5 66.5t6 81q9 44 27.5 82t46.5 65.5t66 43t86 15.5t79 -15.5t46.5 -43t17.5 -65.5t-7 -82z" />
    <glyph glyph-name="Scaron" unicode="&#x160;" horiz-adv-x="401" 
d="M367 -70q1 2 -1.5 4t-4.5 3h-26l-8 -7q-6 -26 -18 -48t-29.5 -39t-40 -26.5t-49.5 -9.5q-55 0 -75.5 35t-9.5 88l-6 7h-25q-6 -2 -8 -7q-15 -72 15 -114.5t102 -42.5q35 0 65 11.5t54 32.5t40.5 49.5t24.5 63.5z" />
    <glyph glyph-name="scaron" unicode="&#x161;" 
 />
    <glyph glyph-name="Ydieresis" unicode="&#x178;" horiz-adv-x="511" 
d="M449 793l-5 8h-43l-10 -8l-9 -45l6 -8h43l9 8zM277 793l-5 8h-43l-10 -8l-9 -45l6 -8h43l9 8zM525 701q1 2 -2 3.5t-5 1.5h-26l-8 -5q-61 -90 -121.5 -178.5t-120.5 -178.5l-84 357l-6 5q-2 0 -8 0.5t-12.5 0t-11.5 -1.5t-6 -4t5.5 -31t16 -69t21.5 -89.5t22.5 -92.5
t19 -77t10.5 -43l-61 -291l5 -8h29l10 8l62 293q6 8 28 40.5t52 76t63.5 92t61.5 90.5t47 70t19 31z" />
    <glyph glyph-name="florin" unicode="&#x192;" horiz-adv-x="549" 
d="M586 719l-3 6q-11 7 -30.5 9t-33.5 2q-60 0 -98 -27t-62.5 -68t-40 -90t-31.5 -93h-42q-8 -4 -10.5 -12.5t-5.5 -16.5q-2 -7 6 -9h41l-146 -411q-5 -15 -13.5 -33.5t-20.5 -34t-27.5 -26.5t-34.5 -11q-20 0 -30.5 8t-25.5 13q-8 0 -10 -8l-6 -30l3 -7q12 -8 29 -10.5
t33 -2.5q28 0 51 13t40.5 33.5t30.5 45t22 48.5q38 103 73 206t73 207h83q9 4 11 12.5t4 16.5q2 7 -9 9t-26 2t-30 -1t-21 -1q11 33 23.5 75t32 79t50 62.5t78.5 25.5q13 0 23 -3.5t17 -7t11.5 -7t6.5 -3.5q8 0 10 8z" />
    <glyph glyph-name="circumflex" unicode="&#x2c6;" horiz-adv-x="515" 
d="M447 560q0 2 -9 15t-23.5 31.5t-31.5 39.5t-32.5 40.5t-27 33.5t-14.5 18q-2 2 -6 2h-51l-217 -174l-3 -6q-2 -8 7 -8h27l206 160l138 -160q8 0 20 -1t17 9z" />
    <glyph glyph-name="tilde" unicode="&#x2dc;" horiz-adv-x="526" 
d="M480 657l-8 19l-5 4q-3 0 -11.5 -7t-21.5 -16t-30 -16t-38 -7q-26 0 -49 7.5t-46 16t-46.5 16t-49.5 7.5q-8 0 -28 -5.5t-41.5 -13.5t-39 -18.5t-19.5 -19.5q0 -2 1 -6.5t3.5 -9t4.5 -8t3 -3.5q4 0 14.5 7.5t25 16.5t32.5 16.5t36 7.5q25 0 48.5 -7t47 -16t46.5 -16
t49 -7q29 0 62 14t57 34z" />
    <glyph glyph-name="endash" unicode="&#x2013;" horiz-adv-x="408" 
d="M360 376l-5 8h-294l-9 -8l-4 -23l5 -8h294l9 8z" />
    <glyph glyph-name="emdash" unicode="&#x2014;" horiz-adv-x="703" 
d="M655 376l-7 8h-586l-10 -8l-4 -23l7 -8h586l10 8z" />
    <glyph glyph-name="quoteleft" unicode="&#x2018;" horiz-adv-x="197" 
d="M169 761q2 8 -7 8h-18l-9 -6l-10.5 -21l-20 -40t-25 -48.5t-25 -47.5t-19 -36.5t-7.5 -15.5q-1 -7 7 -7h35l9 5q2 5 9.5 22t17.5 39.5t21 47.5t20 46.5t15.5 36.5t6.5 17z" />
    <glyph glyph-name="quoteright" unicode="&#x2019;" horiz-adv-x="215" 
d="M188 766q0 7 -7 7h-35l-9 -6q-2 -4 -11 -21.5t-21 -40.5t-26 -49.5t-25.5 -48.5t-19 -37t-7.5 -16q0 -7 8 -7h18l8 5q3 4 13.5 21.5t24.5 41t29.5 49.5t28.5 48.5t22 37.5t9 16z" />
    <glyph glyph-name="quotesinglbase" unicode="&#x201a;" horiz-adv-x="215" 
d="M187 117q2 8 -6 8h-35l-9 -6q-2 -4 -11 -21.5t-21 -40.5t-26 -49.5t-25.5 -48.5t-19 -37t-7.5 -16q0 -7 8 -7h18l8 5q3 4 13 21.5t24 40.5t29.5 49.5t28.5 48.5t22 37t9 16z" />
    <glyph glyph-name="quotedblleft" unicode="&#x201c;" horiz-adv-x="297" 
d="M269 758q0 8 -7 8h-18l-8 -6q-2 -4 -11 -20.5t-21 -39t-25.5 -48t-25 -47t-19.5 -36t-8 -15.5q-1 -7 7 -7h35l9 5q2 4 9.5 21t17.5 39t21 47.5t21 46.5t16 35.5t7 16.5zM171 758q0 8 -7 8h-17l-9 -6q-2 -4 -11 -20.5t-21 -39t-25.5 -48t-25 -47t-19.5 -36t-8 -15.5
q-1 -7 7 -7h35l9 5q2 4 9.5 21t17.5 39t21 47.5t21 46.5t16.5 35.5t6.5 16.5z" />
    <glyph glyph-name="quotedblright" unicode="&#x201d;" horiz-adv-x="303" 
d="M275 764q2 8 -7 8h-35l-9 -6q-2 -4 -10 -21t-19 -40t-23 -49t-22 -48t-17 -37t-7 -16q-2 -8 7 -8h17l9 5q2 4 11.5 21t22.5 40.5t27.5 49.5t26.5 48t20 37t8 16zM177 764q2 8 -7 8h-35l-9 -6q-2 -4 -10 -21t-19 -40t-23 -49t-22 -48t-17 -37t-7 -16q-2 -8 7 -8h18l9 5
q2 4 11.5 21t22.5 40.5t27 49.5t26 48t20 37t8 16z" />
    <glyph glyph-name="quotedblbase" unicode="&#x201e;" horiz-adv-x="303" 
d="M275 113q2 8 -7 8h-35l-9 -6q-2 -4 -10 -21t-19 -40t-23 -49t-22 -48t-17 -37t-7 -16q-2 -8 7 -8h17l9 5q2 4 11.5 21.5t22.5 40.5t27.5 49t26.5 48t20 37t8 16zM177 113q2 8 -7 8h-35l-9 -6q-2 -4 -10 -21t-19 -40t-23 -49t-22 -48t-17 -37t-7 -16q-2 -8 7 -8h18l9 5
q2 4 11.5 21.5t22 40.5t27 49t26.5 48t20 37t8 16z" />
    <glyph glyph-name="dagger" unicode="&#x2020;" horiz-adv-x="413" 
d="M397 538l-7 8h-296l-10 -8l-5 -23l7 -8h296l10 8zM303 752l-6 8h-28l-10 -8l-158 -747l7 -8h28l9 8z" />
    <glyph glyph-name="daggerdbl" unicode="&#x2021;" horiz-adv-x="656" 
d="M687 620q1 2 -1.5 4t-4.5 3h-26l-8 -7q-6 -26 -18 -48t-29.5 -39t-40 -26.5t-49.5 -9.5q-55 0 -75.5 35t-9.5 88l-6 7h-25q-6 -2 -8 -7q-15 -72 15 -114.5t102 -42.5q35 0 65 11.5t54 32.5t40.5 49.5t24.5 63.5zM466 698l-4 8h-27l-12 -8l-323 -660h-77l-12 -8l-10 -23
l4 -8h196l12 8l10 23l-4 8h-76zM410 -70q1 2 -1 4t-4 3h-26l-9 -7q-5 -26 -17 -48t-29.5 -39t-40.5 -26.5t-50 -9.5q-55 0 -75.5 35t-9.5 88l-5 7h-25q-7 -2 -9 -7q-15 -72 15 -114.5t102 -42.5q35 0 65.5 11.5t54.5 32.5t40.5 49.5t23.5 63.5z" />
    <glyph glyph-name="bullet" unicode="&#x2022;" horiz-adv-x="257" 
d="M207 347q7 33 -11 56t-51 23t-60.5 -23t-34.5 -56q-8 -34 10 -56t52 -22q33 0 60.5 22.5t34.5 55.5z" />
    <glyph glyph-name="ellipsis" unicode="&#x2026;" horiz-adv-x="681" 
d="M636 50l-6 8h-47l-10 -8l-10 -48l7 -8h47l9 8zM376 50l-6 8h-46l-10 -8l-10 -48l7 -8h46l9 8zM117 50l-6 8h-47l-9 -8l-10 -48l6 -8h47l9 8z" />
    <glyph glyph-name="perthousand" unicode="&#x2030;" horiz-adv-x="706" 
d="M345 577q11 55 -9 86.5t-77 31.5q-58 0 -92 -31t-45 -87q-11 -54 9.5 -87.5t76.5 -33.5q54 0 90 34.5t47 86.5zM594 704q1 3 -1.5 5t-5.5 2h-29l-8 -4q-8 -10 -36.5 -45t-70.5 -86t-92.5 -112.5t-102.5 -125t-101 -123.5t-87 -106.5t-61 -75t-23 -29.5q-2 -8 6 -8h30l8 4
q8 10 36.5 45t70.5 86t92.5 113t102.5 125.5t100.5 123t86.5 106t61.5 75.5t23.5 30zM605 111q11 55 -8.5 85.5t-76.5 30.5q-41 0 -73 -18t-49 -60q-1 42 -24.5 60t-64.5 18q-58 0 -90 -30t-43 -86q-11 -52 9.5 -84.5t74.5 -32.5q41 0 73 21.5t49 61.5q0 -41 23.5 -62
t65.5 -21q53 0 88 33t46 84zM310 577q-8 -36 -32 -62t-63 -26q-40 0 -53 25.5t-5 62.5q8 38 31 61.5t64 23.5t53.5 -24t4.5 -61zM565 112q-7 -33 -28 -57t-58 -24q-36 0 -47.5 24t-4.5 57q7 34 27.5 56t57.5 22q38 0 49.5 -21.5t3.5 -56.5zM354 112q-7 -33 -28.5 -57
t-57.5 -24t-47.5 24t-4.5 57q7 34 27.5 56t57.5 22t48.5 -22t4.5 -56z" />
    <glyph glyph-name="guilsinglleft" unicode="&#x2039;" horiz-adv-x="300" 
d="M283 521l-1 25l-7 6q-3 0 -18.5 -12t-38 -30t-49 -39.5t-50 -41t-41.5 -34.5t-23 -19l-3 -5q-2 -4 -2.5 -9t1.5 -8l138 -174l5 -3q4 0 7.5 4t6.5 9.5t5.5 10.5l3.5 7l-2 8l-124 150l188 147z" />
    <glyph glyph-name="guilsinglright" unicode="&#x203a;" horiz-adv-x="301" 
d="M252 371l-2 5l-139 173l-5 3q-8 -1 -13.5 -13t-9.5 -18l2 -8l127 -148l-191 -149l-4 -9l5 -24l6 -5q2 0 17.5 12t38 30t49 40t50 41.5t41.5 34t23 18.5q0 2 1.5 3t1.5 3z" />
    <glyph glyph-name="currency" unicode="&#x20ac;" horiz-adv-x="709" 
d="M710 673l-4 6q-45 20 -96 26t-104 6q-65 0 -122.5 -13.5t-106.5 -43t-87.5 -76.5t-64.5 -114h-44l-9 -8l-5 -24l5 -8h38q-19 -62 -26 -121h-38l-8 -8l-5 -24l5 -8h43q-5 -134 66.5 -201.5t206.5 -67.5q23 0 53.5 3t62 8.5t62 13.5t54.5 18l6 7q1 2 2.5 7.5t2.5 11.5
t0.5 10.5t-3.5 4.5t-6 -1q-59 -17 -112.5 -31.5t-113.5 -14.5q-114 0 -175 60.5t-60 171.5h445l9 8l5 24l-6 8h-452q2 14 4.5 28.5t5.5 28.5q3 16 7 32t9 32h452l9 8l5 24l-5 8h-445q48 113 132.5 161.5t195.5 48.5q56 0 100 -11t92 -28q2 -1 3 -0.5t3 0.5q6 0 8 7z" />
    <glyph glyph-name="trademark" unicode="&#x2122;" horiz-adv-x="759" 
d="M746 698l-6 8h-31l-7 -4q-53 -72 -104.5 -143.5t-104.5 -143.5l-95 287l-6 4h-27l-9 -8l-74 -345l7 -8h26l8 8l58 271l83 -275l7 -4h11l7 4l201 280l-59 -276l7 -8h26l8 8zM342 698l-7 8h-239l-8 -8l-3 -9t-3 -11.5t0 -9.5t6 -4q24 0 49 1.5t49 1.5l-67 -314l7 -8h25l9 8
l67 314h38q3 0 14.5 -1t23.5 -1.5t22 1t11 6.5z" />
    <glyph glyph-name="notequal" unicode="&#xe000;" horiz-adv-x="408" 
d="M378 460l-5 8h-75q3 4 14.5 18t24 30t22.5 29.5t11 16.5t-2 4.5t-5 1.5h-27l-8 -4q-18 -24 -37 -48l-38 -48h-174l-9 -8l-5 -23l6 -8h153l-97 -123h-82l-9 -8l-5 -23l5 -8h60q-3 -5 -15 -20t-25 -31.5t-23.5 -31t-11.5 -17.5t2 -4.5t5 -1.5h28l8 4q20 26 39.5 51t39.5 51
h187l9 8l5 23l-5 8h-166l96 123h96l8 8z" />
    <glyph glyph-name="infinity" unicode="&#xe001;" horiz-adv-x="751" 
d="M701 366q7 32 1.5 59.5t-20.5 47.5t-40 31t-57 11q-27 0 -54.5 -11t-54.5 -28t-51.5 -38t-44.5 -40q-11 16 -28 36.5t-37.5 38.5t-43.5 30t-45 12q-33 0 -62 -11.5t-52 -31.5t-39 -47t-23 -59q-14 -68 14 -109.5t98 -41.5q25 0 52.5 10.5t54 27t50.5 36.5t43 39
q11 -18 27.5 -38t36.5 -36.5t43 -27.5t47 -11q34 0 64.5 11t55 30.5t41.5 47.5t24 62zM659 366q-5 -24 -17.5 -44.5t-30.5 -35.5t-40.5 -23.5t-46.5 -8.5q-22 0 -41.5 11t-36 27.5t-29 36t-20.5 36.5q15 14 38 33t48 36.5t50 29.5t44 12q22 0 39 -9t28 -24.5t15 -35.5t0 -41
zM344 362q-15 -17 -36 -35.5t-44.5 -35t-47.5 -27t-46 -10.5q-51 0 -69.5 32t-8.5 80q4 21 16 41t29 35.5t37.5 24.5t43.5 9q21 0 40 -12t35 -29.5t29 -37t22 -35.5z" />
    <glyph glyph-name="lessequal" unicode="&#xe002;" horiz-adv-x="423" 
d="M416 573q0 1 -1 5.5t-3.5 9t-5 8t-4.5 3.5q-3 0 -26.5 -11.5t-58 -29.5t-75.5 -39.5t-77 -40.5t-63.5 -33.5t-34.5 -18.5l-5 -7l-2 -10l2 -7q6 -4 27 -18.5t49 -34t59.5 -40.5l58.5 -39t45.5 -30t21.5 -12q2 0 6.5 3.5t8.5 7.5t7 8t3 6q1 6 -2 8q-23 18 -52.5 38
t-61 39.5t-62.5 39t-57 36.5q8 4 33.5 17t59 30t70.5 35.5t68 35t51.5 28t20.5 13.5zM330 160l-7 8h-294l-9 -8l-5 -23l6 -8h294l10 8z" />
    <glyph glyph-name="greaterequal" unicode="&#xe003;" horiz-adv-x="423" 
d="M385 419l-3 7q-6 4 -26.5 18.5t-48.5 33.5t-60 40.5t-59 39.5t-45.5 29.5t-21.5 11.5q-1 0 -3 -1l-4 -2q-3 -3 -10 -11.5t-8 -11.5q0 -4 3 -7q54 -42 114.5 -78t118.5 -74q-8 -4 -33.5 -17t-59 -30t-70.5 -36t-68 -35.5t-51.5 -28t-20.5 -13.5t1 -6t3.5 -8.5t5 -8
t4.5 -3.5t26 12t58.5 30t75 39t77 40.5t63.5 34t34 18.5l6 7zM316 160l-7 8h-293l-9 -8l-5 -23l6 -8h293l10 8z" />
    <glyph glyph-name="summation" unicode="&#xe004;" horiz-adv-x="503" 
d="M510 710q-68 -2 -134 -3t-133 -1q-6 0 -21 0.5t-31 0.5t-29 -1.5t-14 -6.5q0 -4 1 -6q14 -33 31 -64.5t32 -63.5q23 -49 45 -98t45 -98q-9 -10 -27.5 -31t-43 -48t-53 -58.5t-56.5 -62.5t-54.5 -60t-46.5 -51.5t-32.5 -36t-12.5 -14.5q-2 -7 6 -7h144q122 0 244 -3
q2 1 5 3t4 5l6 27l-6 8q-82 -1 -164 -1h-164l302 323l3 9q-35 74 -69.5 147.5t-69.5 148.5h114q14 0 37.5 -1t48.5 -2t48 -1.5t35 1.5q4 1 6 2t4 6q2 8 5.5 21.5t-5.5 16.5z" />
    <glyph glyph-name="product" unicode="&#xe005;" horiz-adv-x="698" 
d="M721 698l-6 8q-291 -1 -581 0l-10 -8l-2.5 -10t-2.5 -12t0.5 -10t6.5 -4q14 0 27.5 2.5t27.5 2.5h31q-38 -166 -76 -329.5t-75 -329.5l6 -8h27l10 8q37 166 74.5 329.5t75.5 329.5h325l-130 -659l6 -8h26l10 8q32 166 64 329.5t65 329.5q22 0 43.5 -0.5t41.5 -4.5l10 8z
" />
    <glyph glyph-name="approxequal" unicode="&#xe006;" horiz-adv-x="349" 
d="M314 438l-5 5t-5 3q-6 0 -20 -11t-37 -11q-13 0 -26 5t-26 10.5t-27 10.5t-29 5q-8 0 -20.5 -5t-25.5 -12.5t-23 -17t-12 -17.5q-1 -2 4 -7.5t7 -5.5q4 0 10 4.5t14 9.5t17.5 9.5t20.5 4.5q14 0 27 -5t26 -11t26 -11t28 -5q20 0 40 13t34 29zM290 327q-2 1 -5 4t-5 3
q-5 0 -19.5 -10.5t-37.5 -10.5q-14 0 -26.5 4.5t-26 10.5t-27 10.5t-28.5 4.5q-8 0 -20.5 -5t-25.5 -12.5t-23 -17t-12 -17.5q0 -2 5 -7t7 -5q3 0 9 4.5t14.5 9.5t18 9.5t20.5 4.5q13 0 26 -5t26 -11t26.5 -11t28.5 -5q20 0 40 13t34 29z" />
    <glyph glyph-name="Delta" unicode="&#xe007;" horiz-adv-x="639" 
d="M530 6q1 4 -4 29t-11.5 56t-12.5 59t-8 38q-20 94 -36.5 186.5t-31.5 187.5l-6 5h-58l-7 -5l-364 -557q-1 -2 2 -3.5t5 -1.5h523q7 0 9 6zM473 42h-408q79 121 157.5 242t158.5 242h5z" />
    </font>
</defs>
</svg>
